<?xml version="1.0" encoding="UTF-8"?>
<svg version="1.1" xmlns="http://www.w3.org/2000/svg" width="1024" height="1024">
<path d="M0 0 C337.92 0 675.84 0 1024 0 C1024 337.92 1024 675.84 1024 1024 C686.08 1024 348.16 1024 0 1024 C0 686.08 0 348.16 0 0 Z " fill="#DDE2E4" transform="translate(0,0)"/>
<path d="M0 0 C18.59475313 -0.07037309 37.18947888 -0.12312583 55.784338 -0.15543652 C64.42007296 -0.17084393 73.05572472 -0.19181485 81.69140625 -0.22631836 C89.22648099 -0.25640985 96.76149542 -0.27561939 104.29662859 -0.28226548 C108.27897851 -0.28614464 112.26115603 -0.29512996 116.24345016 -0.31719017 C154.60860732 -0.52148644 154.60860732 -0.52148644 172.125 5.625 C173.22038086 6.00132568 173.22038086 6.00132568 174.33789062 6.38525391 C186.49002674 10.77585528 197.31345771 17.48708314 207 26 C207.81726563 26.67417969 208.63453125 27.34835937 209.4765625 28.04296875 C226.81312476 42.77636299 239.3822629 65.55676925 241.78393555 88.2902832 C243.03952152 104.03689193 243.34053873 119.99642402 238 135 C237.5875 136.23105469 237.175 137.46210938 236.75 138.73046875 C227.94617218 163.58190233 209.85557705 183.09364655 186.3293457 194.62792969 C183.27418225 196.06956201 180.33169183 197.37425077 177 198 C184.26995208 208.26838854 191.69736791 218.41466484 199.17675781 228.53125 C200.98293262 230.97689002 202.78515642 233.42538637 204.5859375 235.875 C213.00466367 247.325394 221.50179285 258.7140272 230.0625 270.05859375 C235.01211156 276.62480598 239.93218766 283.21125596 244.75 289.875 C245.18070801 290.4642627 245.61141602 291.05352539 246.05517578 291.66064453 C249 295.76632699 249 295.76632699 249 298 C249.66 298 250.32 298 251 298 C251 298.66 251 299.32 251 300 C247.08972165 300.050211 243.17957344 300.08609395 239.26904297 300.10986328 C237.30038843 300.12462224 235.3318231 300.15006161 233.36328125 300.17578125 C222.68392585 300.22999118 212.7386892 299.6889985 203 295 C202.28972656 294.74734375 201.57945312 294.4946875 200.84765625 294.234375 C195.40794652 292.29477023 190.65624278 289.7260785 185.8125 286.625 C185.24265381 286.26196777 184.67280762 285.89893555 184.08569336 285.52490234 C176.78112884 280.72689909 171.12417482 275.33843874 165.9375 268.3125 C165.38441162 267.57628418 164.83132324 266.84006836 164.26147461 266.08154297 C162.49813581 263.72794763 160.74769022 261.36523323 159 259 C158.42797852 258.22865723 157.85595703 257.45731445 157.26660156 256.66259766 C153.75645179 251.92716949 150.26434877 247.17872354 146.77929688 242.42480469 C144.38891246 239.16721715 141.9908166 235.91534571 139.5925293 232.66357422 C134.63891662 225.94688037 129.69059157 219.22627787 124.75 212.5 C124.2960083 211.88286133 123.8420166 211.26572266 123.37426758 210.62988281 C117.74836019 202.96362029 117.74836019 202.96362029 117.77294922 197.88598633 C117.77310028 196.84513382 117.77325134 195.80428131 117.77340698 194.73188782 C117.78372955 193.60993515 117.79405212 192.48798248 117.8046875 191.33203125 C117.8075174 190.18208176 117.81034729 189.03213226 117.81326294 187.84733582 C117.82447167 184.16895204 117.84957776 180.49081038 117.875 176.8125 C117.88502889 174.32096705 117.8941549 171.8294303 117.90234375 169.33789062 C117.92441327 163.22517759 117.95789776 157.11260609 118 151 C118.91177002 150.9906543 119.82354004 150.98130859 120.76293945 150.97167969 C124.19840194 150.92724152 127.63269567 150.86544408 131.06762695 150.79248047 C132.54440215 150.76453497 134.02131957 150.74319128 135.49829102 150.72900391 C151.36821283 150.56756014 162.48479909 146.85059573 174.29296875 135.8671875 C184.91077993 124.75135516 187.64438716 111.26459084 187.3125 96.41796875 C187.02369954 90.74183643 185.58289187 86.05278222 183 81 C182.38125 79.72769531 182.38125 79.72769531 181.75 78.4296875 C175.3587473 66.55503049 165.02381735 59.55782647 152.45126343 55.45715332 C147.20151981 53.90188761 142.41505615 53.57677596 136.96728516 53.61523438 C136.01949692 53.6098616 135.07170868 53.60448883 134.09519958 53.59895325 C132.0551824 53.58923627 130.01512418 53.58621251 127.97508621 53.58930969 C124.73631632 53.59382351 121.49808258 53.57968656 118.2593689 53.56091309 C111.38125441 53.52428579 104.50319761 53.51044972 97.625 53.5 C89.6549261 53.4878779 81.68511615 53.46614356 73.71516037 53.41999817 C70.54238972 53.40652944 67.36996158 53.41058012 64.19717407 53.41540527 C44.79156308 53.36320828 29.28293734 50.09527831 15 36 C7.42762517 26.93663044 1.55343103 16.70875187 0.4453125 4.78979492 C0.36039551 3.89201828 0.27547852 2.99424164 0.18798828 2.06925964 C0.12595215 1.38640396 0.06391602 0.70354828 0 0 Z " fill="#4D4097" transform="translate(374,286)"/>
<path d="M0 0 C16.22917342 2.1584717 29.75788665 11.37809 40 24 C51.6810992 40.29544291 54.32711995 58.35979087 54.22705078 77.95800781 C54.22648536 79.5262603 54.22680578 81.09451332 54.22793579 82.6627655 C54.2285052 86.88304212 54.21681833 91.10320302 54.20278788 95.32345295 C54.19021113 99.74767265 54.18910458 104.17189555 54.18673706 108.59613037 C54.18054257 116.95746596 54.16415948 125.31874869 54.14403808 133.6800611 C54.12161556 143.20614828 54.11066973 152.73223809 54.10064721 162.25834513 C54.07979127 181.83892615 54.04465514 201.41945973 54 221 C37.7693219 219.11295364 24.46271341 210.48391941 14 198 C2.23830697 181.543115 -0.32773123 162.75992617 -0.22705078 143.04199219 C-0.22648536 141.4737397 -0.22680578 139.90548668 -0.22793579 138.3372345 C-0.2285052 134.11695788 -0.21681833 129.89679698 -0.20278788 125.67654705 C-0.19021113 121.25232735 -0.18910458 116.82810445 -0.18673706 112.40386963 C-0.18054257 104.04253404 -0.16415948 95.68125131 -0.14403808 87.3199389 C-0.12161556 77.79385172 -0.11066973 68.26776191 -0.10064721 58.74165487 C-0.07979127 39.16107385 -0.04465514 19.58054027 0 0 Z " fill="#31ABB8" transform="translate(410,365)"/>
<path d="M0 0 C16.70798895 -0.16407307 33.41571356 -0.28722892 50.12431526 -0.3626852 C57.88377053 -0.39866409 65.64272307 -0.44764875 73.40185547 -0.52807617 C80.17073298 -0.59820519 86.93924614 -0.64309159 93.7084769 -0.65861946 C97.28754704 -0.66768584 100.86557555 -0.68874164 104.44430923 -0.7401104 C132.9358579 -1.13305181 132.9358579 -1.13305181 144 7 C145.06179474 7.72808365 146.12358948 8.4561673 147.21755981 9.20631409 C149.88271539 11.06229992 152.45029957 12.98926064 155 15 C156.22396484 15.90685547 156.22396484 15.90685547 157.47265625 16.83203125 C160.53012374 19.45474293 162.9153103 22.32373521 165.375 25.5 C165.85469238 26.11875 166.33438477 26.7375 166.82861328 27.375 C180.10560439 44.79798262 186.34566062 64.22338098 186 86 C183.65106992 83.05002016 181.94361623 80.05094572 180.25 76.6875 C174.44182979 65.99421842 165.03330629 58.85846675 153.53930664 54.82446289 C144.69819709 52.22760173 135.80871555 52.44712571 126.65789604 52.48357964 C123.43139613 52.49634982 120.20573427 52.48479259 116.97926331 52.46754456 C111.29085225 52.44098611 105.60265091 52.43524347 99.91418457 52.43664551 C90.80878474 52.43888341 81.70364406 52.42451038 72.5983448 52.38105965 C69.43882893 52.37130292 66.27973061 52.37989433 63.120224 52.38975525 C43.7407211 52.3692826 28.26028421 49.07292281 14 35 C6.7952065 26.37658824 -0.17959189 15.8798942 -0.04858398 4.29589844 C-0.04156967 3.4900531 -0.03455536 2.68420776 -0.02732849 1.85394287 C-0.01831009 1.24214172 -0.00929169 0.63034058 0 0 Z " fill="#10366D" transform="translate(375,287)"/>
<path d="M0 0 C18.59475313 -0.07037309 37.18947888 -0.12312583 55.784338 -0.15543652 C64.42007296 -0.17084393 73.05572472 -0.19181485 81.69140625 -0.22631836 C89.22648099 -0.25640985 96.76149542 -0.27561939 104.29662859 -0.28226548 C108.27897851 -0.28614464 112.26115603 -0.29512996 116.24345016 -0.31719017 C154.60860732 -0.52148644 154.60860732 -0.52148644 172.125 5.625 C173.22038086 6.00132568 173.22038086 6.00132568 174.33789062 6.38525391 C186.49002674 10.77585528 197.31345771 17.48708314 207 26 C207.81726563 26.67417969 208.63453125 27.34835937 209.4765625 28.04296875 C220.15171039 37.11519196 231.19361939 50.16889422 235 64 C235.20422416 68.96945467 234.31069753 73.22612323 233 78 C232.7834375 79.01707031 232.566875 80.03414063 232.34375 81.08203125 C230.67083979 88.6798318 227.93423243 95.80939088 225 103 C224.34 103 223.68 103 223 103 C222.79375 103.825 222.5875 104.65 222.375 105.5 C220.64979213 109.89143822 218.22530939 113.54681549 215 117 C214.34 117 213.68 117 213 117 C212.71125 117.61875 212.4225 118.2375 212.125 118.875 C211 121 211 121 209 123 C208.01 123 207.02 123 206 123 C206 123.66 206 124.32 206 125 C205.34 125 204.68 125 204 125 C204 125.66 204 126.32 204 127 C203.01 127 202.02 127 201 127 C200.67 127.99 200.34 128.98 200 130 C190.25974954 137.6408955 177.81624733 143.53661716 166 147 C165.67 146.34 165.34 145.68 165 145 C165.66 144.34 166.32 143.68 167 143 C167.45632813 142.53464844 167.91265625 142.06929687 168.3828125 141.58984375 C169.50910937 140.48259054 170.67454624 139.41435839 171.8671875 138.37890625 C180.33136352 130.72162639 186.3017742 119.25653688 187.16894531 107.76025391 C187.23090873 105.44055984 187.22445102 103.13263529 187.1875 100.8125 C187.18685547 100.03197266 187.18621094 99.25144531 187.18554688 98.44726562 C187.15528965 94.48356963 186.85671078 90.88283436 186 87 C186.020625 85.700625 186.04125 84.40125 186.0625 83.0625 C186.24263223 61.3385529 177.7074294 41.4967319 164 25 C163.41734375 24.43667969 162.8346875 23.87335938 162.234375 23.29296875 C161 22 161 22 161 20 C160.4225 19.73574219 159.845 19.47148437 159.25 19.19921875 C156.89748596 17.94536144 155.0517533 16.51063673 153 14.8125 C145.1382758 8.59080436 135.79950814 1.78144642 125.46342468 1.7215271 C124.36271133 1.71036362 123.26199799 1.69920013 122.12792969 1.68769836 C120.93031006 1.68553818 119.73269043 1.68337799 118.4987793 1.68115234 C117.23008499 1.67110672 115.96139069 1.6610611 114.6542511 1.65071106 C111.18359626 1.62345178 107.71298193 1.60827381 104.2422483 1.59528303 C100.61203867 1.57963461 96.98191152 1.55284986 93.35176086 1.5272522 C86.48126079 1.48049466 79.61074515 1.44373595 72.74016744 1.41057932 C64.91669106 1.37233653 57.09329759 1.32293203 49.26989114 1.27259517 C33.179987 1.16932032 17.09003683 1.0800455 1 1 C0.67 2.32 0.34 3.64 0 5 C0 3.35 0 1.7 0 0 Z " fill="#31ADBA" transform="translate(374,286)"/>
<path d="M0 0 C7.693125 -0.061875 15.38625 -0.12375 23.3125 -0.1875 C25.71829346 -0.21481201 28.12408691 -0.24212402 30.6027832 -0.27026367 C32.54377747 -0.27903858 34.48477733 -0.28668013 36.42578125 -0.29296875 C37.89597717 -0.3159906 37.89597717 -0.3159906 39.39587402 -0.33947754 C50.51632437 -0.34362026 60.68477739 2.07868464 68.94140625 9.8203125 C75.62192283 16.93317984 77.5668873 23.25905962 77.28515625 32.97265625 C76.48629895 41.45367552 73.75349347 48.87472153 67.2265625 54.5390625 C62.64420391 58 62.64420391 58 59 58 C64.41712829 66.91168495 69.92653588 75.5433864 76.3828125 83.7421875 C78 86 78 86 78 88 C58.52403491 89.61946748 58.52403491 89.61946748 53.296875 86.265625 C51.50540957 83.60451616 50.29007025 80.9372786 49 78 C47.42915508 75.44960636 45.73884003 72.98192078 44.0625 70.5 C40 64.34253247 40 64.34253247 40 62 C33.4 62 26.8 62 20 62 C20 70.58 20 79.16 20 88 C13.4 88 6.8 88 0 88 C0 58.96 0 29.92 0 0 Z " fill="#444F58" transform="translate(310,645)"/>
<path d="M0 0 C5.94 0 11.88 0 18 0 C24.21296673 6.49220119 24.21296673 6.49220119 25.859375 9.4375 C27.75188556 12.65442572 29.8940952 15.45913031 32.3125 18.3125 C33.04210937 19.19808594 33.77171875 20.08367188 34.5234375 20.99609375 C35.34070313 21.98738281 36.15796875 22.97867188 37 24 C44.1958931 32.77072815 51.30388352 41.59060718 58.171875 50.62109375 C59.79004354 52.83331403 59.79004354 52.83331403 61 54 C61.33 36.18 61.66 18.36 62 0 C68.6 0 75.2 0 82 0 C82 29.37 82 58.74 82 89 C64 89 64 89 57.5625 82.875 C55.90820312 80.79589844 55.90820312 80.79589844 54.71875 78.984375 C52.57210779 75.81654442 50.3146162 72.80376334 47.9206543 69.81958008 C46.55066073 68.11022805 45.20536472 66.3836676 43.86328125 64.65234375 C40.20866153 59.96453444 36.44407699 55.36646153 32.67797852 50.76806641 C28.70180235 45.90219162 24.86155564 40.96485725 21 36 C20.67 53.49 20.34 70.98 20 89 C13.4 89 6.8 89 0 89 C0 59.63 0 30.26 0 0 Z " fill="#45515A" transform="translate(505,644)"/>
<path d="M0 0 C13.97737902 1.55304211 23.30536225 7.05113224 33 17 C33.69609375 17.66386719 34.3921875 18.32773437 35.109375 19.01171875 C48.98623624 33.13061827 52.2219373 51.18470735 52.33007812 70.21899414 C52.31557617 71.66133423 52.31557617 71.66133423 52.30078125 73.1328125 C52.29216064 73.99793457 52.28354004 74.86305664 52.2746582 75.75439453 C52 78 52 78 50 81 C48.88625 81.2165625 48.88625 81.2165625 47.75 81.4375 C41.99765709 82.6141156 37.75025229 86.97291441 33.5625 90.875 C30.53276858 93.69154328 27.51939008 96.40612122 24.25 98.9375 C19.12735693 103.24348982 15.10526706 109.68419882 13 116 C12.34 116 11.68 116 11 116 C10.82984375 116.54527344 10.6596875 117.09054687 10.484375 117.65234375 C9.20833555 121.62299841 7.85187738 125.38563222 6 129.125 C3.09574822 135.39148172 2.17523974 142.24237147 1 149 C0.67 149 0.34 149 0 149 C0 99.83 0 50.66 0 0 Z " fill="#144775" transform="translate(411,366)"/>
<path d="M0 0 C6.93 0 13.86 0 21 0 C26.57054719 10.90190704 31.69665943 21.90051902 36.55621338 33.13494873 C42.90896711 47.81980084 49.39180292 62.42568302 56.29174805 76.86230469 C57.0329187 78.42706543 57.0329187 78.42706543 57.7890625 80.0234375 C58.21912598 80.91981934 58.64918945 81.81620117 59.09228516 82.73974609 C60 85 60 85 60 88 C53.07 88 46.14 88 39 88 C37.845 85.421875 36.69 82.84375 35.5 80.1875 C35.13455078 79.37949951 34.76910156 78.57149902 34.39257812 77.73901367 C33.9662207 76.77572144 33.9662207 76.77572144 33.53125 75.79296875 C33.23798828 75.1383667 32.94472656 74.48376465 32.64257812 73.80932617 C32 72 32 72 32 69 C18.14 69.33 4.28 69.66 -10 70 C-12.31 75.61 -14.62 81.22 -17 87 C-18 88 -18 88 -19.94946289 88.11352539 C-20.7821167 88.10828857 -21.61477051 88.10305176 -22.47265625 88.09765625 C-23.37177734 88.09443359 -24.27089844 88.09121094 -25.19726562 88.08789062 C-26.61555664 88.07532227 -26.61555664 88.07532227 -28.0625 88.0625 C-29.01189453 88.05798828 -29.96128906 88.05347656 -30.93945312 88.04882812 C-33.29303065 88.0370011 -35.64648477 88.02052025 -38 88 C-35.70856679 80.42000538 -32.53815243 73.33284913 -29.21917725 66.15853882 C-27.53894904 62.52471069 -25.87537672 58.88326819 -24.2109375 55.2421875 C-23.86592194 54.48812119 -23.52090637 53.73405487 -23.16543579 52.95713806 C-19.33230385 44.56471288 -15.59616748 36.13003654 -11.875 27.6875 C-11.56389282 26.98319855 -11.25278564 26.27889709 -10.93225098 25.55325317 C-7.18852964 17.07570976 -3.53380403 8.56780787 0 0 Z " fill="#444F57" transform="translate(433,645)"/>
<path d="M0 0 C-0.39919882 7.04585913 -3.4423275 12.60765725 -6.5 18.875 C-12.21844613 30.87945019 -16.89235469 43.07043371 -21.13720703 55.66357422 C-21.95338267 57.87376123 -22.9287226 59.90488184 -24 62 C-24.37331647 63.2806829 -24.70729857 64.57352401 -25 65.875 C-25.98290984 70.21033448 -27.42452237 74.3590092 -28.89453125 78.55078125 C-32.41673462 89.14736756 -34.34888711 100.07750191 -36.43164062 111.02880859 C-36.93574027 113.66407179 -37.45555429 116.29539195 -37.984375 118.92578125 C-38.26080341 120.32544451 -38.53687767 121.72517779 -38.8125 123.125 C-39.04582031 124.30320312 -39.27914062 125.48140625 -39.51953125 126.6953125 C-40.02560381 130.17610428 -40.01216909 133.48718994 -40 137 C-40.27901692 138.67661518 -40.60875313 140.34597014 -41 142 C-42.32301747 148.46057436 -43.11771254 154.40809791 -43 161 C-43.33 161.99 -43.66 162.98 -44 164 C-45.17958807 174.15202599 -45.15655509 184.37268297 -45.13037109 194.57739258 C-45.12499951 197.06272456 -45.13035804 199.5478765 -45.13671875 202.03320312 C-45.13895636 210.2174607 -44.96773882 218.28013652 -44.11669922 226.43139648 C-44.0052501 228.88444283 -44.25860673 230.67515836 -45 233 C-44.34 233.33 -43.68 233.66 -43 234 C-43.02320312 234.66644531 -43.04640625 235.33289063 -43.0703125 236.01953125 C-43.18913091 242.08775733 -42.69167175 247.57241784 -41.33984375 253.4921875 C-40.9656593 256.25341068 -41.31218513 258.31607905 -42 261 C-41.34 261.33 -40.68 261.66 -40 262 C-39.62109375 264.109375 -39.62109375 264.109375 -39.4375 266.75 C-39.18036283 270.2554618 -38.71394779 273.55976068 -38 277 C-37.70258911 278.44330688 -37.70258911 278.44330688 -37.39916992 279.91577148 C-34.11736904 301.84170825 -34.11736904 301.84170825 -26 322 C-26 323.32 -26 324.64 -26 326 C-25.40538488 328.0217617 -24.74013751 330.02323042 -24.03125 332.0078125 C-23.42216797 333.73451172 -23.42216797 333.73451172 -22.80078125 335.49609375 C-22.37152344 336.69363281 -21.94226563 337.89117188 -21.5 339.125 C-20.65355779 341.50164705 -19.80967134 343.87920641 -18.96875 346.2578125 C-18.59169922 347.3111377 -18.21464844 348.36446289 -17.82617188 349.44970703 C-17 352 -17 352 -17 354 C-16.34 354 -15.68 354 -15 354 C-14.731875 355.216875 -14.46375 356.43375 -14.1875 357.6875 C-13.29777817 361.27144989 -11.92603827 363.84129724 -10 367 C-9.49280897 368.42785301 -9.01642975 369.86683243 -8.5625 371.3125 C-5.92545427 379.80695086 -5.92545427 379.80695086 0 386 C-0.33 386.66 -0.66 387.32 -1 388 C-0.29092187 389.84843437 -0.29092187 389.84843437 0.87109375 391.84375 C1.28037109 392.59527344 1.68964844 393.34679687 2.11132812 394.12109375 C2.7677832 395.29865234 2.7677832 395.29865234 3.4375 396.5 C4.29399178 398.05008468 5.1470331 399.60208248 5.99609375 401.15625 C6.37950928 401.84525391 6.7629248 402.53425781 7.15795898 403.24414062 C8 405 8 405 8 407 C8.66 407.33 9.32 407.66 10 408 C13 413.42307692 13 413.42307692 13 416 C13.66 416 14.32 416 15 416 C15.24492187 416.54785156 15.48984375 417.09570312 15.7421875 417.66015625 C18.82532969 424.19854399 22.58796289 430.07080424 26.69677734 435.99633789 C30 440.80130922 30 440.80130922 30 443 C30.99 443 31.98 443 33 443 C33.0825 443.5775 33.165 444.155 33.25 444.75 C34.20918964 447.62756891 35.83980195 448.9052625 38 451 C39.3405537 453.32833011 40.14582731 455.43748194 41 458 C41.66 458 42.32 458 43 458 C44.35517144 459.70129749 45.63522958 461.46285924 46.875 463.25 C49.37244234 466.83947987 51.87954148 469.94482304 55 473 C55.99 474.485 55.99 474.485 57 476 C59.54389821 479.603255 59.54389821 479.603255 63.125 482 C65 483 65 483 65.77734375 485.2109375 C67.3265243 488.74485096 69.68641187 491.01379771 72.4375 493.625 C72.92798828 494.10195313 73.41847656 494.57890625 73.92382812 495.0703125 C75.87992821 496.97097655 77.84642781 498.8577915 79.84765625 500.7109375 C81 502 81 502 81 504 C81.556875 504.226875 82.11375 504.45375 82.6875 504.6875 C85.63723273 506.36167263 87.6373884 508.57832311 90 511 C91.31787285 512.02028865 92.65210653 513.01971384 94 514 C96.07707909 515.60524878 98.03113872 517.25487295 100 519 C100 519.66 100 520.32 100 521 C100.66 521 101.32 521 102 521 C102 521.66 102 522.32 102 523 C102.556875 523.2475 103.11375 523.495 103.6875 523.75 C106.40371009 525.21822167 108.61608641 527.04396834 111 529 C113.77260299 530.93798263 113.77260299 530.93798263 116 532 C117.66666667 533.66666667 119.33333333 535.33333333 121 537 C121.66 537.33 122.32 537.66 123 538 C123 538.66 123 539.32 123 540 C123.99 540 124.98 540 126 540 C127.68762851 541.6454378 129.3540349 543.31288577 131 545 C131.99 545.33 132.98 545.66 134 546 C134 546.66 134 547.32 134 548 C134.515625 548.2475 135.03125 548.495 135.5625 548.75 C140.29663892 551.17776355 144.67174278 553.68039431 148.875 556.9375 C152.45818092 559.70727781 156.1925321 561.85207484 160.21484375 563.921875 C162 565 162 565 163 567 C164.6612592 567.68002947 166.32949534 568.34300958 168 569 C170.55806116 570.37260043 173.05434245 571.8511082 175.5625 573.3125 C182.19867667 577.12309313 188.82869578 580.2971789 196 583 C196 583.66 196 584.32 196 585 C197.2478125 585.39445313 198.495625 585.78890625 199.78125 586.1953125 C205.49581787 588.09942437 210.97215688 590.49259249 216.5 592.875 C225.03373594 596.50251026 233.48158587 599.59244318 242.44140625 601.96484375 C246.15304524 603.0445192 249.48265253 604.41108241 253 606 C252.34 607.32 251.68 608.64 251 610 C248.03 609.67 245.06 609.34 242 609 C242 608.34 242 607.68 242 607 C240.49663086 606.83298584 240.49663086 606.83298584 238.96289062 606.66259766 C234.97929805 606.08849755 231.33359576 604.85422625 227.59375 603.3984375 C226.90438354 603.13461273 226.21501709 602.87078796 225.50476074 602.59896851 C218.4146967 599.84385011 211.48147152 596.75649332 204.57275391 593.578125 C202.50316562 592.62645566 200.42968368 591.68372367 198.35546875 590.7421875 C190.54698256 587.18127312 182.82815872 583.48099851 175.2010498 579.54458618 C172.14895264 577.98666075 169.32794306 576.78327409 166 576 C164.63596639 574.69809069 163.3041234 573.36191692 162 572 C160.55238737 570.99463715 159.06877178 570.04014049 157.5625 569.125 C140.06854061 558.20595152 123.4914436 546.54382581 107.7265625 533.25390625 C104.83550769 530.86402283 101.87527285 528.61848209 98.81640625 526.44921875 C96.34864038 524.48031308 94.20814045 522.25476785 92 520 C91.175 519.175 90.35 518.35 89.5 517.5 C77 505 77 505 74.5 502.49609375 C72.83853347 500.83722326 71.17188282 499.18352822 69.5 497.53515625 C61.93112948 490.04907025 61.93112948 490.04907025 59 486.4375 C57.23362558 483.94690328 57.23362558 483.94690328 55 483 C54.56429687 482.27167969 54.12859375 481.54335938 53.6796875 480.79296875 C51.77853529 477.63175055 49.56368072 475.0804388 47.125 472.3125 C40.18906432 464.28345803 34.07682342 455.68776204 28 447 C27.30390625 446.00742187 26.6078125 445.01484375 25.890625 443.9921875 C1.79035933 408.6657297 -16.60344669 370.57115205 -30 330 C-30.2406871 329.27182068 -30.48137421 328.54364136 -30.72935486 327.793396 C-51.0939511 265.75442602 -56.56459335 197.48880602 -46 133 C-45.88638123 132.30169067 -45.77276245 131.60338135 -45.65570068 130.88391113 C-40.8688229 101.73280909 -34.21084032 72.73233969 -22.95385742 45.32861328 C-22.01578611 43.038538 -21.12535293 40.73509046 -20.24609375 38.421875 C-16.62038456 29.00123746 -12.62332849 19.85206161 -8.125 10.8125 C-7.64861084 9.84989258 -7.17222168 8.88728516 -6.68139648 7.89550781 C-6.23223877 7.00831055 -5.78308105 6.12111328 -5.3203125 5.20703125 C-4.92086426 4.4178833 -4.52141602 3.62873535 -4.10986328 2.81567383 C-3.00972529 1.01591002 -2.25493292 0 0 0 Z " fill="#808283" transform="translate(130,315)"/>
<path d="M0 0 C25.74 0 51.48 0 78 0 C78 5.61 78 11.22 78 17 C68.76 17 59.52 17 50 17 C50 41.09 50 65.18 50 90 C43.07 90 36.14 90 29 90 C29 65.91 29 41.82 29 17 C19.43 17 9.86 17 0 17 C0 11.39 0 5.78 0 0 Z " fill="#4A555D" transform="translate(642,644)"/>
<path d="M0 0 C1.41015625 1.43359375 1.41015625 1.43359375 3.0625 3.4375 C5.75174994 6.60757217 8.53513377 9.58581525 11.5 12.5 C15.00717539 15.95937742 18.29206378 19.53394321 21.4921875 23.27734375 C22.74099787 24.70409342 24.07946714 26.05178849 25.4375 27.375 C27 29 27 29 27 31 C27.99 31 28.98 31 30 31 C30.24878906 31.71929687 30.49757813 32.43859375 30.75390625 33.1796875 C32.12355816 36.27965201 33.78997304 38.50957611 35.9375 41.125 C36.62714844 41.97320312 37.31679688 42.82140625 38.02734375 43.6953125 C39.88546309 45.93574086 39.88546309 45.93574086 41.6328125 47.59375 C43.52835092 49.54344666 44.65604244 51.86079869 45.953125 54.23046875 C47.07775234 56.23130407 47.07775234 56.23130407 49.1875 58.6875 C50.92856395 60.90885746 51.59249113 62.24931513 52 65 C52.66 65 53.32 65 54 65 C54.36351562 65.68964844 54.72703125 66.37929688 55.1015625 67.08984375 C57.51475349 71.60065459 59.92403656 76.00426611 62.875 80.1875 C65.98922855 84.7415537 68.39459547 89.59721698 70.81005859 94.54223633 C73.79170094 100.64156824 76.96138428 106.62866713 80.20629883 112.59179688 C83 117.78582439 83 117.78582439 83 120 C83.66 120.33 84.32 120.66 85 121 C85.3684405 122.65925902 85.6950484 124.32790748 86 126 C86.66237741 127.83682351 87.36908797 129.65801239 88.109375 131.46484375 C88.5321875 132.50576172 88.955 133.54667969 89.390625 134.61914062 C89.83921875 135.71419922 90.2878125 136.80925781 90.75 137.9375 C100.45563362 161.93964223 100.45563362 161.93964223 102.1875 170.3125 C102.455625 171.529375 102.72375 172.74625 103 174 C103.66 174.33 104.32 174.66 105 175 C104.67 176.65 104.34 178.3 104 180 C104.66 180 105.32 180 106 180 C106.103125 181.0725 106.20625 182.145 106.3125 183.25 C106.73990195 186.71406646 107.47845947 189.97798382 108.3828125 193.34765625 C110.21420386 200.55989438 111.41303386 207.84122378 112.5625 215.1875 C112.78149943 216.56153557 113.00057552 217.93555892 113.21972656 219.30957031 C114.57402719 227.87740013 115.75997363 236.44774162 116.640625 245.078125 C116.90918228 248.05763415 116.90918228 248.05763415 118 251 C118.04570645 253.1453465 118.03826965 255.29200795 118 257.4375 C117.96296512 261.96038463 118.0554911 266.37434734 118.5 270.875 C119.66869492 283.28667062 119.00162199 295.81768139 118.25537109 308.23901367 C118.12364398 310.46036699 118.0049135 312.68218695 117.88671875 314.90429688 C117.519351 321.39647832 117.08827648 327.70965245 115.46826172 334.03344727 C114.62883291 337.55878567 114.34952801 341.14903023 114 344.75 C113.83112612 346.34002512 113.66054464 347.92986978 113.48828125 349.51953125 C113.40529785 350.2873291 113.32231445 351.05512695 113.23681641 351.84619141 C111.94829027 363.56513735 109.13629423 374.66385253 106 386 C105.34 386 104.68 386 104 386 C103.99742187 386.62003906 103.99484375 387.24007813 103.9921875 387.87890625 C103.60453973 396.75604014 100.5367821 403.98545707 97 412 C96.01 412 95.02 412 94 412 C94 409.69 94 407.38 94 405 C94.66 405 95.32 405 96 405 C96.07476563 404.32839844 96.14953125 403.65679688 96.2265625 402.96484375 C97.06050233 396.62853623 98.31974229 390.63192254 100.03369141 384.48339844 C105.94540917 363.26051699 109.23052833 340.95336745 111 319 C111.08540039 317.9486084 111.17080078 316.8972168 111.25878906 315.81396484 C112.00328477 305.78728881 112.24262085 295.80140045 112.25 285.75 C112.25067474 284.91084045 112.25134949 284.07168091 112.25204468 283.20709229 C112.19118863 234.87601612 104.49525461 185.85066049 86 141 C85.68071533 140.21834473 85.36143066 139.43668945 85.0324707 138.63134766 C77.10964624 119.37168527 68.2523691 100.41315933 57.11962891 82.78173828 C55.92066565 80.87375009 54.74627426 78.9519676 53.57421875 77.02734375 C45.97011856 64.60102251 37.66943493 52.84337846 28.49047852 41.52880859 C26.47396893 39.01893295 25.02778719 37.08336158 24 34 C23.34 34 22.68 34 22 34 C21.773125 33.443125 21.54625 32.88625 21.3125 32.3125 C20.01523552 29.78808783 20.01523552 29.78808783 17.4375 27.4375 C15 25 15 25 14 22 C13.01 21.67 12.02 21.34 11 21 C9.4921875 19.46875 9.4921875 19.46875 7.875 17.5 C3.84115562 12.73194412 -0.54103091 8.36796972 -5 4 C-4.67 3.01 -4.34 2.02 -4 1 C-2 0 -2 0 0 0 Z " fill="#9B9E9F" transform="translate(791,229)"/>
<path d="M0 0 C6.6 0 13.2 0 20 0 C20 29.04 20 58.08 20 88 C13.4 88 6.8 88 0 88 C0 58.96 0 29.92 0 0 Z " fill="#455059" transform="translate(610,645)"/>
<path d="M0 0 C0.33 0 0.66 0 1 0 C1.33 1.65 1.66 3.3 2 5 C2.66 4.67 3.32 4.34 4 4 C3.09744468 13.17597904 1.82763454 21.97326597 -1.27734375 30.6796875 C-2.37562893 34.20607342 -2.92191341 37.80205412 -3.54296875 41.4375 C-4.41782811 46.34269434 -5.84566623 50.74818283 -7.9375 55.25 C-9.50404887 58.64322577 -10.58306323 61.93984817 -11.5 65.5625 C-12.54906006 69.65611481 -13.86884335 73.17498379 -15.9375 76.85546875 C-17.19319041 79.38993211 -18.11873597 82.01342333 -19.09423828 84.6652832 C-20.85079467 89.19303219 -22.91422734 93.58668014 -24.9375 98 C-25.36740234 98.94617188 -25.79730469 99.89234375 -26.24023438 100.8671875 C-28.17986782 105.11730996 -30.14805342 109.34309708 -32.25 113.515625 C-33.98631861 116.83289853 -33.98631861 116.83289853 -35.0625 119.75 C-36 122 -36 122 -37.5625 124.0625 C-39.09983736 125.86613893 -39.09983736 125.86613893 -39.4375 127.875 C-40.26728096 131.00972806 -42.15822378 133.38058494 -44 136 C-47.98587181 141.74863765 -51.45376954 147.56119579 -54.60546875 153.8125 C-56 156 -56 156 -59 157 C-59.70105843 158.65249487 -60.35800351 160.32367583 -61 162 C-62.27794664 164.11103843 -63.61505866 166.17247307 -64.9765625 168.23046875 C-66.16688653 169.94785169 -66.16688653 169.94785169 -66 172 C-67.65171988 173.6814806 -69.32179972 175.34494731 -71 177 C-72.8392958 179.17669355 -74.57447983 181.42953014 -76.3125 183.6875 C-77.28888529 184.9402423 -78.26544863 186.19284585 -79.2421875 187.4453125 C-80.85438845 189.52128224 -82.46331241 191.59968361 -84.0703125 193.6796875 C-89.66216916 200.81573889 -95.79677533 207.40107884 -102 214 C-103.3608275 215.45428635 -104.72149733 216.90872024 -106.08203125 218.36328125 C-107.49183665 219.8675164 -108.90198955 221.37142595 -110.3125 222.875 C-110.96992187 223.57633057 -111.62734375 224.27766113 -112.3046875 225.00024414 C-123.81385702 237.22873676 -123.81385702 237.22873676 -130.25 242.3125 C-134.14457623 245.44520974 -137.88821827 248.67405348 -141.5625 252.0625 C-147.96234276 257.93282653 -154.35811232 263.78660937 -162.078125 267.8671875 C-165.73016673 270.01981373 -169.06072571 272.65514091 -172.44921875 275.1953125 C-174.59245272 276.71165874 -176.6176272 277.91761048 -179 279 C-179.495 277.515 -179.495 277.515 -180 276 C-175.77847335 271.45504994 -171.03101891 267.98033101 -166 264.375 C-158.6396141 259.02958997 -151.61166327 253.48310046 -144.76660156 247.49536133 C-143.4197721 246.35532119 -142.04691497 245.24595561 -140.66308594 244.15112305 C-133.28842286 238.29346822 -126.63698691 231.91355303 -120.01904297 225.22485352 C-118.24372999 223.43116509 -116.46042544 221.64572804 -114.67578125 219.86132812 C-108.90810351 214.07588855 -103.26858915 208.24979504 -98 202 C-97.154375 201.03578125 -96.30875 200.0715625 -95.4375 199.078125 C-46.5198369 142.32109281 -14.41275075 73.39932986 0 0 Z " fill="#8E9294" transform="translate(930,594)"/>
<path d="M0 0 C0.66375641 -0.00006042 1.32751282 -0.00012085 2.01138306 -0.00018311 C14.51045423 0.01581582 26.89990388 0.73017006 39.34277344 1.9140625 C42.08398895 2.17188593 44.82604513 2.40240828 47.5703125 2.625 C59.64374767 3.6506644 71.40226154 5.6749997 83.25 8.1875 C84.12881836 8.37183594 85.00763672 8.55617188 85.91308594 8.74609375 C118.15823182 15.57919006 149.27221778 25.46512457 179.25 39.1875 C180.12430664 39.58018066 180.99861328 39.97286133 181.89941406 40.37744141 C196.60895562 46.9942569 210.495386 54.77654095 224.25 63.1875 C224.81936279 63.53564758 225.38872559 63.88379517 225.9753418 64.24249268 C229.51398428 66.41058739 233.03994195 68.59772212 236.55236816 70.80804443 C238.22518852 71.85940607 239.90309025 72.90266868 241.58105469 73.94580078 C243.08780762 74.90655518 243.08780762 74.90655518 244.625 75.88671875 C245.51960938 76.45221436 246.41421875 77.01770996 247.3359375 77.6003418 C247.96757813 78.124104 248.59921875 78.64786621 249.25 79.1875 C249.25 80.1775 249.25 81.1675 249.25 82.1875 C249.91 82.22875 250.57 82.27 251.25 82.3125 C255.02535811 83.41364612 257.43008889 85.38619403 260.48046875 87.8125 C262.21021771 89.24913651 262.21021771 89.24913651 264.25 90.1875 C264.25 90.8475 264.25 91.5075 264.25 92.1875 C264.848125 92.290625 265.44625 92.39375 266.0625 92.5 C268.57857968 93.2907679 269.48754346 94.27178637 271.25 96.1875 C272.24 96.8475 273.23 97.5075 274.25 98.1875 C274.25 98.8475 274.25 99.5075 274.25 100.1875 C274.91 100.1875 275.57 100.1875 276.25 100.1875 C276.25 100.8475 276.25 101.5075 276.25 102.1875 C277.24 102.5175 278.23 102.8475 279.25 103.1875 C277.765 104.1775 277.765 104.1775 276.25 105.1875 C275.26 104.5275 274.27 103.8675 273.25 103.1875 C273.25 102.5275 273.25 101.8675 273.25 101.1875 C272.6725 100.89875 272.095 100.61 271.5 100.3125 C270.7575 99.94125 270.015 99.57 269.25 99.1875 C268.59 98.89875 267.93 98.61 267.25 98.3125 C265.25 97.1875 265.25 97.1875 263.5 95.375 C260.86289789 92.81115073 258.03786625 91.15718979 254.859375 89.3359375 C254.32828125 88.95695312 253.7971875 88.57796875 253.25 88.1875 C253.25 87.5275 253.25 86.8675 253.25 86.1875 C252.72535156 85.94773437 252.20070313 85.70796875 251.66015625 85.4609375 C248.516134 83.79975232 245.62394726 81.80860025 242.6875 79.8125 C188.31150073 43.30875553 128.20196559 18.80359627 63.25 9.1875 C62.27836914 9.04183594 61.30673828 8.89617187 60.30566406 8.74609375 C57.43434962 8.32014533 54.56160856 7.90664002 51.6875 7.5 C50.85645752 7.38052002 50.02541504 7.26104004 49.16918945 7.13793945 C33.16119905 4.96653834 17.12217877 4.98325912 1 5 C-0.16084106 5.00093658 -1.32168213 5.00187317 -2.5177002 5.00283813 C-39.13197074 5.06695069 -73.97040816 9.5867807 -109.75 17.1875 C-109.75 16.1975 -109.75 15.2075 -109.75 14.1875 C-97.07824713 10.61234435 -84.52431433 7.90357475 -71.5 6 C-70.6564798 5.8733194 -69.81295959 5.74663879 -68.94387817 5.61611938 C-56.45716598 3.74116024 -43.98343291 2.15595349 -31.37548828 1.36010742 C-29.43009555 1.23221151 -27.48586436 1.086373 -25.54248047 0.9309082 C-17.01826878 0.26039092 -8.54963208 -0.00546757 0 0 Z " fill="#F4F6F6" transform="translate(511.75,81.8125)"/>
<path d="M0 0 C5.27361196 1.56255169 8.8449131 4.99582334 12.9375 8.5 C25.83988036 19.31330542 39.58274978 28.50508021 53.76123047 37.56347656 C55.60135074 38.74420368 57.42937328 39.94376387 59.25390625 41.1484375 C101.12461387 68.1507714 152.14347325 84.32635544 201.16845703 91.578125 C203.02843003 91.85524462 204.8863636 92.14649073 206.74169922 92.453125 C241.57697943 98.1195825 279.10304348 96.72877279 314.04492188 92.36376953 C318.35587539 91.83309201 322.67626655 91.41140459 327 91 C326.67 92.32 326.34 93.64 326 95 C322.02155118 95.55908084 318.04204511 96.10992204 314.06152344 96.65405273 C312.06389007 96.92871549 310.06708426 97.20937632 308.0703125 97.49023438 C292.7982161 99.56935641 277.58686692 100.23828674 262.1875 100.25 C261.37451447 100.25067474 260.56152893 100.25134949 259.72390747 100.25204468 C232.148903 100.21626555 205.03369797 97.52040672 178 92 C176.96327148 91.79036621 175.92654297 91.58073242 174.85839844 91.36474609 C144.94050925 85.15058906 114.89128617 74.73487859 87.67529297 60.82617188 C85.90128192 59.92082329 85.90128192 59.92082329 83.57421875 59.05859375 C59.1231496 49.00360173 35.55377135 32.21695302 15.35107422 15.36376953 C11.69961394 12.32295975 7.99425509 9.59024864 4 7 C2.31916921 5.68456721 0.6475884 4.35683751 -1 3 C-0.67 2.01 -0.34 1.02 0 0 Z " fill="#F3F6F7" transform="translate(251,812)"/>
<path d="M0 0 C0.99 0.495 0.99 0.495 2 1 C1.67 1.99 1.34 2.98 1 4 C1.99 4.495 1.99 4.495 3 5 C2.52433594 5.24492187 2.04867187 5.48984375 1.55859375 5.7421875 C-6.31854178 9.94912912 -13.62838518 14.97978945 -21 20 C-21.91579834 20.62092529 -21.91579834 20.62092529 -22.85009766 21.25439453 C-30.2521247 26.2354463 -30.2521247 26.2354463 -37.24609375 31.76171875 C-40 34 -40 34 -42 34 C-42.33 34.99 -42.66 35.98 -43 37 C-44.671875 38.46484375 -44.671875 38.46484375 -46.75 39.9375 C-49.1978854 41.69664345 -51.54765251 43.45240859 -53.875 45.375 C-56 47 -56 47 -58 47 C-58.22945313 47.5775 -58.45890625 48.155 -58.6953125 48.75 C-60.34134751 51.58867115 -62.2702654 53.00681178 -64.875 55 C-73.65416897 62.0002321 -81.70628232 69.65478284 -88 79 C-89.65135796 80.68183604 -91.31987834 82.34689784 -93 84 C-98.74344337 90.01515602 -104.03678331 96.15484342 -108.82421875 102.95703125 C-110.41563951 105.18273461 -112.02991929 107.35276523 -113.70703125 109.51171875 C-121.97015965 120.18664603 -129.09831104 131.40582413 -136 143 C-136.40234863 143.67337402 -136.80469727 144.34674805 -137.21923828 145.04052734 C-146.07384413 159.94006661 -155.08086291 176.17831104 -160.2265625 192.765625 C-161.13526324 195.39076048 -162.26400419 197.85731808 -163.4375 200.375 C-167.14280509 208.3547986 -170.0568874 216.41791936 -172 225 C-172.33 224.01 -172.66 223.02 -173 222 C-173.66 222 -174.32 222 -175 222 C-175.33 222.99 -175.66 223.98 -176 225 C-177.85144725 219.44565824 -174.05218214 213.30867116 -172 208 C-171.66033203 207.10877441 -171.32066406 206.21754883 -170.97070312 205.29931641 C-154.8565577 163.18022539 -133.21354963 123.09367404 -103.5234375 88.92578125 C-101.05318301 86.06166266 -98.67802228 83.13834776 -96.3125 80.1875 C-93.02890095 76.14750046 -89.56952335 72.45157488 -85.83203125 68.83203125 C-84.10498944 67.10498944 -82.55065296 65.32252556 -81 63.4375 C-78.27313735 60.17856659 -75.22647202 57.48827813 -71.9921875 54.7421875 C-70.12494265 53.10926357 -68.40737604 51.41070861 -66.6875 49.625 C-63.01423836 45.89356453 -59.00817627 42.64825343 -54.9296875 39.37109375 C-52.0553283 37.04477904 -49.24851404 34.65221006 -46.4375 32.25 C-34.91918894 22.66865781 -22.58501415 14.23547948 -10 6.125 C-8.55681396 5.18672363 -8.55681396 5.18672363 -7.08447266 4.22949219 C-6.19034668 3.66133789 -5.2962207 3.09318359 -4.375 2.5078125 C-3.57835937 1.99879395 -2.78171875 1.48977539 -1.9609375 0.96533203 C-1.31382812 0.64677246 -0.66671875 0.32821289 0 0 Z " fill="#999A99" transform="translate(308,171)"/>
<path d="M0 0 C3.815625 -0.061875 7.63125 -0.12375 11.5625 -0.1875 C13.34636108 -0.22846802 13.34636108 -0.22846802 15.16625977 -0.27026367 C22.92176905 -0.3309811 27.83208912 0.37130799 33.9375 5.4375 C36.84931628 9.28456853 36.63143777 13.49641144 36.41796875 18.15234375 C35.84688683 22.04317292 34.74265231 24.18517263 32 27 C26.92469112 30.06633245 22.66116301 31.13175095 16.796875 31.09765625 C15.91354492 31.09515869 15.03021484 31.09266113 14.12011719 31.09008789 C13.00797852 31.08098389 11.89583984 31.07187988 10.75 31.0625 C7.2025 31.041875 3.655 31.02125 0 31 C0 20.77 0 10.54 0 0 Z " fill="#E8ECED" transform="translate(330,661)"/>
<path d="M0 0 C1.41015625 1.43359375 1.41015625 1.43359375 3.0625 3.4375 C5.75174994 6.60757217 8.53513377 9.58581525 11.5 12.5 C15.00717539 15.95937742 18.29206378 19.53394321 21.4921875 23.27734375 C22.74099787 24.70409342 24.07946714 26.05178849 25.4375 27.375 C27 29 27 29 27 31 C27.99 31 28.98 31 30 31 C30.24878906 31.71929687 30.49757813 32.43859375 30.75390625 33.1796875 C32.12355816 36.27965201 33.78997304 38.50957611 35.9375 41.125 C36.62714844 41.97320312 37.31679688 42.82140625 38.02734375 43.6953125 C39.88546309 45.93574086 39.88546309 45.93574086 41.6328125 47.59375 C43.52835092 49.54344666 44.65604244 51.86079869 45.953125 54.23046875 C47.07775234 56.23130407 47.07775234 56.23130407 49.1875 58.6875 C50.92856395 60.90885746 51.59249113 62.24931513 52 65 C52.66 65 53.32 65 54 65 C54.36351562 65.68964844 54.72703125 66.37929688 55.1015625 67.08984375 C57.51475349 71.60065459 59.92403656 76.00426611 62.875 80.1875 C65.98922855 84.7415537 68.39459547 89.59721698 70.81005859 94.54223633 C73.79170094 100.64156824 76.96138428 106.62866713 80.20629883 112.59179688 C83 117.78582439 83 117.78582439 83 120 C83.66 120.33 84.32 120.66 85 121 C85.3684405 122.65925902 85.6950484 124.32790748 86 126 C86.66237741 127.83682351 87.36908797 129.65801239 88.109375 131.46484375 C88.53234863 132.50648682 88.95532227 133.54812988 89.39111328 134.62133789 C89.8395459 135.71567139 90.28797852 136.81000488 90.75 137.9375 C94.38075976 146.89281357 97.88999615 155.85004131 101 165 C100.01 165.99 99.02 166.98 98 168 C97.01 167.67 96.02 167.34 95 167 C94.04323594 164.50761463 93.26805692 162.12625633 92.5625 159.5625 C90.75509697 153.19094791 88.54031903 147.11703133 86 141 C85.67974854 140.21665283 85.35949707 139.43330566 85.02954102 138.6262207 C77.11356212 119.36686989 68.25063973 100.41042044 57.11962891 82.78173828 C55.92066565 80.87375009 54.74627426 78.9519676 53.57421875 77.02734375 C45.97011856 64.60102251 37.66943493 52.84337846 28.49047852 41.52880859 C26.47396893 39.01893295 25.02778719 37.08336158 24 34 C23.34 34 22.68 34 22 34 C21.773125 33.443125 21.54625 32.88625 21.3125 32.3125 C20.01523552 29.78808783 20.01523552 29.78808783 17.4375 27.4375 C15 25 15 25 14 22 C13.01 21.67 12.02 21.34 11 21 C9.4921875 19.46875 9.4921875 19.46875 7.875 17.5 C3.84115562 12.73194412 -0.54103091 8.36796972 -5 4 C-4.67 3.01 -4.34 2.02 -4 1 C-2 0 -2 0 0 0 Z " fill="#929597" transform="translate(791,229)"/>
<path d="M0 0 C-0.39919882 7.04585913 -3.4423275 12.60765725 -6.5 18.875 C-12.21844613 30.87945019 -16.89235469 43.07043371 -21.13720703 55.66357422 C-21.95338267 57.87376123 -22.9287226 59.90488184 -24 62 C-24.37331647 63.2806829 -24.70729857 64.57352401 -25 65.875 C-25.98290984 70.21033448 -27.42452237 74.3590092 -28.89453125 78.55078125 C-32.41673462 89.14736756 -34.34888711 100.07750191 -36.43164062 111.02880859 C-36.93574027 113.66407179 -37.45555429 116.29539195 -37.984375 118.92578125 C-38.26080341 120.32544451 -38.53687767 121.72517779 -38.8125 123.125 C-39.04582031 124.30320312 -39.27914062 125.48140625 -39.51953125 126.6953125 C-40.02560381 130.17610428 -40.01216909 133.48718994 -40 137 C-40.27901692 138.67661518 -40.60875313 140.34597014 -41 142 C-42.32301747 148.46057436 -43.11771254 154.40809791 -43 161 C-43.33 161.99 -43.66 162.98 -44 164 C-45.41490532 174.60305588 -45.07019338 185.38029986 -44.96313477 196.04858398 C-44.91898247 202.14118076 -45.04378411 207.97882805 -46 214 C-46.33 214 -46.66 214 -47 214 C-47.495 196.675 -47.495 196.675 -48 179 C-48.66 179.33 -49.32 179.66 -50 180 C-50.29250158 170.68369976 -49.41553292 161.55263826 -48.375 152.3125 C-48.24495071 151.14255493 -48.24495071 151.14255493 -48.11227417 149.94897461 C-44.10238266 114.34045096 -36.6061758 78.56348633 -22.95385742 45.32861328 C-22.01578611 43.038538 -21.12535293 40.73509046 -20.24609375 38.421875 C-16.62038456 29.00123746 -12.62332849 19.85206161 -8.125 10.8125 C-7.64861084 9.84989258 -7.17222168 8.88728516 -6.68139648 7.89550781 C-6.23223877 7.00831055 -5.78308105 6.12111328 -5.3203125 5.20703125 C-4.92086426 4.4178833 -4.52141602 3.62873535 -4.10986328 2.81567383 C-3.00972529 1.01591002 -2.25493292 0 0 0 Z " fill="#A0A2A4" transform="translate(130,315)"/>
<path d="M0 0 C0.66 0 1.32 0 2 0 C2.51046875 1.17755859 2.51046875 1.17755859 3.03125 2.37890625 C8.05320028 13.26425062 13.78827324 18.82155554 25 23 C25 23.66 25 24.32 25 25 C24.21496094 25.3403125 23.42992187 25.680625 22.62109375 26.03125 C11.73574938 31.05320028 6.17844446 36.78827324 2 48 C1.34 48 0.68 48 0 48 C-0.3403125 47.21496094 -0.680625 46.42992187 -1.03125 45.62109375 C-6.05320028 34.73574938 -11.78827324 29.17844446 -23 25 C-23 24.34 -23 23.68 -23 23 C-22.21496094 22.6596875 -21.42992187 22.319375 -20.62109375 21.96875 C-9.73574938 16.94679972 -4.17844446 11.21172676 0 0 Z " fill="#ECEEF0" transform="translate(967,944)"/>
<path d="M0 0 C5.15550534 3.53520366 9.27607811 7.25420567 13.2734375 12.0546875 C14.96412388 13.95957849 16.71373011 15.52078702 18.6875 17.125 C21.83706114 19.71088129 23.83975401 22.52817609 26 26 C26.5775 26.5775 27.155 27.155 27.75 27.75 C29 29 29 29 29 31 C29.66 31 30.32 31 31 31 C35 35.47058824 35 35.47058824 35 38 C35.66 38 36.32 38 37 38 C38.9453125 40.1171875 38.9453125 40.1171875 41.125 42.875 C41.84945312 43.77992188 42.57390625 44.68484375 43.3203125 45.6171875 C45 48 45 48 45 50 C45.66 50 46.32 50 47 50 C48.5859375 52.046875 48.5859375 52.046875 50.375 54.75 C52.1477244 57.42080063 53.77682121 59.7822851 56.07421875 62.0234375 C58.18535517 64.19024283 59.20051749 66.12710115 60.4375 68.875 C61.93542275 72.02341171 63.37788827 74.69720437 65.6875 77.3125 C68 80 68 80 68.85546875 82.20703125 C70.36467425 85.88990473 72.46838555 89.04131293 74.625 92.375 C78.14988897 97.93091798 81.53943707 103.53368824 84.6875 109.3125 C85.03828613 109.9401123 85.38907227 110.56772461 85.75048828 111.21435547 C86.58177294 112.76868237 87.30109793 114.38182134 88 116 C87.505 117.485 87.505 117.485 87 119 C87 119.99 87 120.98 87 122 C86.505 123.485 86.505 123.485 86 125 C85.59007812 124.22914063 85.18015625 123.45828125 84.7578125 122.6640625 C84.21898437 121.66117187 83.68015625 120.65828125 83.125 119.625 C82.59132813 118.62726563 82.05765625 117.62953125 81.5078125 116.6015625 C80.1179862 113.94651605 80.1179862 113.94651605 78 112 C78.33 111.34 78.66 110.68 79 110 C78.34 110 77.68 110 77 110 C76.78085937 109.38253906 76.56171875 108.76507813 76.3359375 108.12890625 C74.32028738 102.74564556 71.98708293 98.16469346 68.69140625 93.46484375 C66.7415064 90.62330378 64.96884722 87.70002433 63.1875 84.75 C57.9358673 76.16191734 52.33914634 67.82994762 46 60 C45.0560339 58.75487581 44.11812019 57.5051304 43.1875 56.25 C28.88682229 37.1468559 13.00177317 19.72152416 -4 3 C-2.68 2.67 -1.36 2.34 0 2 C0 1.34 0 0.68 0 0 Z " fill="#CBD0D2" transform="translate(808,200)"/>
<path d="M0 0 C0 8.75723541 -15.00176516 20.61564128 -21 27 C-22.35946698 28.45303895 -23.71883734 29.9061683 -25.078125 31.359375 C-26.48922687 32.86491751 -27.90068188 34.37012912 -29.3125 35.875 C-29.97000244 36.57641113 -30.62750488 37.27782227 -31.30493164 38.00048828 C-42.81357982 50.2285178 -42.81357982 50.2285178 -49.25 55.3125 C-53.14457623 58.44520974 -56.88821827 61.67405348 -60.5625 65.0625 C-66.96234276 70.93282653 -73.35811232 76.78660937 -81.078125 80.8671875 C-84.73016673 83.01981373 -88.06072571 85.65514091 -91.44921875 88.1953125 C-93.59245272 89.71165874 -95.6176272 90.91761048 -98 92 C-98.33 91.01 -98.66 90.02 -99 89 C-94.77847335 84.45504994 -90.03101891 80.98033101 -85 77.375 C-77.6396141 72.02958997 -70.61166327 66.48310046 -63.76660156 60.49536133 C-62.4197721 59.35532119 -61.04691497 58.24595561 -59.66308594 57.15112305 C-52.28842286 51.29346822 -45.63698691 44.91355303 -39.01904297 38.22485352 C-37.24372999 36.43116509 -35.46042544 34.64572804 -33.67578125 32.86132812 C-25.20803301 24.36816714 -17.40263593 15.65424519 -10.11328125 6.125 C-9.41589844 5.42375 -8.71851563 4.7225 -8 4 C-6.68 4 -5.36 4 -4 4 C-3.67 3.34 -3.34 2.68 -3 2 C-2.01 1.34 -1.02 0.68 0 0 Z " fill="#9C9FA1" transform="translate(849,781)"/>
<path d="M0 0 C2.70002002 0.38571715 3.83189183 0.82552694 5.75390625 2.8203125 C8.35304201 5.34260425 11.02220797 6.87464363 14.1875 8.625 C19.89214047 11.78428094 19.89214047 11.78428094 21 14 C22.6612592 14.68002947 24.32949534 15.34300958 26 16 C28.55806116 17.37260043 31.05434245 18.8511082 33.5625 20.3125 C40.19867667 24.12309313 46.82869578 27.2971789 54 30 C54 30.66 54 31.32 54 32 C55.2478125 32.39445313 56.495625 32.78890625 57.78125 33.1953125 C63.49581787 35.09942437 68.97215688 37.49259249 74.5 39.875 C83.03373594 43.50251026 91.48158587 46.59244318 100.44140625 48.96484375 C104.15304524 50.0445192 107.48265253 51.41108241 111 53 C110.34 54.32 109.68 55.64 109 57 C106.03 56.67 103.06 56.34 100 56 C100 55.34 100 54.68 100 54 C98.99775391 53.88865723 97.99550781 53.77731445 96.96289062 53.66259766 C92.97929805 53.08849755 89.33359576 51.85422625 85.59375 50.3984375 C84.90438354 50.13461273 84.21501709 49.87078796 83.50476074 49.59896851 C76.4146967 46.84385011 69.48147152 43.75649332 62.57275391 40.578125 C60.50316562 39.62645566 58.42968368 38.68372367 56.35546875 37.7421875 C48.54698256 34.18127312 40.82815872 30.48099851 33.2010498 26.54458618 C30.14920536 24.98678975 27.32837627 23.78148718 24 23 C22.63951979 21.69437786 21.3083242 20.35788193 20 19 C18.36447686 17.87019783 16.69466437 16.78899065 15 15.75 C8.91006589 11.96125557 2.95322607 7.9999861 -3 4 C-2.01 2.68 -1.02 1.36 0 0 Z " fill="#95989A" transform="translate(272,868)"/>
<path d="M0 0 C0.62939453 1.79150391 0.62939453 1.79150391 1 4 C-0.61670947 6.60503753 -2.26850336 8.95002701 -4.125 11.375 C-20.14314395 33.24351612 -35.04608526 59.02772672 -43.875 84.76953125 C-44.96116095 87.8884726 -46.22432076 90.82355055 -47.625 93.8125 C-51.27758128 101.63442647 -54.09388756 109.58133674 -56 118 C-56.33 117.01 -56.66 116.02 -57 115 C-57.66 115 -58.32 115 -59 115 C-59.33 115.99 -59.66 116.98 -60 118 C-61.85144725 112.44565824 -58.05218214 106.30867116 -56 101 C-55.66033203 100.10877441 -55.32066406 99.21754883 -54.97070312 98.29931641 C-23.73081533 16.64461846 -23.73081533 16.64461846 0 0 Z " fill="#898A8B" transform="translate(192,278)"/>
<path d="M0 0 C0.66 0 1.32 0 2 0 C3.17171756 3.28989086 4.33651088 6.58219102 5.5 9.875 C5.83386719 10.81214844 6.16773437 11.74929688 6.51171875 12.71484375 C6.98544922 14.05869141 6.98544922 14.05869141 7.46875 15.4296875 C7.76201172 16.25710449 8.05527344 17.08452148 8.35742188 17.93701172 C9 20 9 20 9 22 C9.66 22 10.32 22 11 22 C11.268125 23.216875 11.53625 24.43375 11.8125 25.6875 C12.70222183 29.27144989 14.07396173 31.84129724 16 35 C16.50719103 36.42785301 16.98357025 37.86683243 17.4375 39.3125 C20.07454573 47.80695086 20.07454573 47.80695086 26 54 C25.67 54.66 25.34 55.32 25 56 C25.70907813 57.84843437 25.70907813 57.84843437 26.87109375 59.84375 C27.28037109 60.59527344 27.68964844 61.34679687 28.11132812 62.12109375 C28.54896484 62.90613281 28.98660156 63.69117188 29.4375 64.5 C30.29399178 66.05008468 31.1470331 67.60208248 31.99609375 69.15625 C32.37950928 69.84525391 32.7629248 70.53425781 33.15795898 71.24414062 C34 73 34 73 34 75 C34.99 75.495 34.99 75.495 36 76 C39 81.42307692 39 81.42307692 39 84 C39.66 84 40.32 84 41 84 C41.30292969 84.6290625 41.60585937 85.258125 41.91796875 85.90625 C44.37345958 90.92300664 46.94447248 95.68431483 50.08203125 100.30859375 C51 102 51 102 51 105 C48.53903109 104.63269121 47.30434651 104.33778176 45.61328125 102.4609375 C45.18402344 101.77257812 44.75476563 101.08421875 44.3125 100.375 C43.79558594 99.55128906 43.27867187 98.72757813 42.74609375 97.87890625 C42.16988281 96.92886719 41.59367187 95.97882813 41 95 C40.35160156 93.95714844 39.70320313 92.91429687 39.03515625 91.83984375 C24.49987155 68.25441412 12.72057752 43.56416842 2.6875 17.75 C2.29602783 16.76854004 1.90455566 15.78708008 1.5012207 14.77587891 C-0.54922927 9.33497731 -1.46712643 5.68021142 0 0 Z " fill="#787A7C" transform="translate(104,647)"/>
<path d="M0 0 C2.97226903 2.53403241 4.18479028 5.27401571 5.69921875 8.83984375 C6.42915039 10.5578418 6.42915039 10.5578418 7.17382812 12.31054688 C7.67333984 13.50744141 8.17285156 14.70433594 8.6875 15.9375 C9.19861328 17.13052734 9.70972656 18.32355469 10.23632812 19.55273438 C10.71908203 20.69935547 11.20183594 21.84597656 11.69921875 23.02734375 C12.14096436 24.07656006 12.58270996 25.12577637 13.0378418 26.20678711 C14 29 14 29 14 33 C5.09 33 -3.82 33 -13 33 C-9.625 21.75 -9.625 21.75 -7.51953125 16.9921875 C-7.07802734 15.98671875 -6.63652344 14.98125 -6.18164062 13.9453125 C-5.72982422 12.93210937 -5.27800781 11.91890625 -4.8125 10.875 C-4.34908203 9.823125 -3.88566406 8.77125 -3.40820312 7.6875 C-2.27733522 5.12264496 -1.14120481 2.56026819 0 0 Z " fill="#DEE4E5" transform="translate(443,666)"/>
<path d="M0 0 C5.83847782 1.8853418 7.66736805 5.18501792 10.49121094 10.47949219 C10.98911133 11.45563477 11.48701172 12.43177734 12 13.4375 C12.52110352 14.42782227 13.04220703 15.41814453 13.57910156 16.43847656 C15.0702361 19.28366197 16.53777566 22.13987663 18 25 C18.70245121 26.35061107 19.40546991 27.70092734 20.109375 29.05078125 C24 36.6375 24 36.6375 24 39 C24.66 39.33 25.32 39.66 26 40 C26.3684405 41.65925902 26.6950484 43.32790748 27 45 C27.66237741 46.83682351 28.36908797 48.65801239 29.109375 50.46484375 C29.74383545 52.02730835 29.74383545 52.02730835 30.39111328 53.62133789 C30.8395459 54.71567139 31.28797852 55.81000488 31.75 56.9375 C35.38075976 65.89281357 38.88999615 74.85004131 42 84 C41.01 84.99 40.02 85.98 39 87 C38.01 86.67 37.02 86.34 36 86 C35.04323594 83.50761463 34.26805692 81.12625633 33.5625 78.5625 C31.75509697 72.19094791 29.54031903 66.11703133 27 60 C26.67974854 59.21665283 26.35949707 58.43330566 26.02954102 57.6262207 C21.64526071 46.95939179 16.89699359 36.50855986 11.75 26.1875 C11.255 25.19218262 10.76 24.19686523 10.25 23.17138672 C7.72911858 18.1779069 5.10775402 13.38255981 1.97094727 8.74731445 C0.38254388 5.88882739 0.20217159 3.23474541 0 0 Z " fill="#878B8D" transform="translate(850,310)"/>
<path d="M0 0 C0.99 0.99 1.98 1.98 3 3 C3.66 2.34 4.32 1.68 5 1 C3.56700307 8.73818343 0.92523561 15.67311879 -2.0625 22.9375 C-2.52205078 24.07251953 -2.98160156 25.20753906 -3.45507812 26.37695312 C-6.76971726 34.53943452 -6.76971726 34.53943452 -8 37 C-8.66 37 -9.32 37 -10 37 C-10.0825 37.639375 -10.165 38.27875 -10.25 38.9375 C-12.30481057 47.32797649 -17.01297175 54.90382977 -21.09765625 62.44921875 C-22.26965322 64.61806667 -23.39367626 66.79147478 -24.4921875 69 C-26.25020293 72.49781309 -28.13258294 75.90739587 -30.0625 79.3125 C-30.41376953 79.94478516 -30.76503906 80.57707031 -31.12695312 81.22851562 C-33.76598728 85.88299364 -33.76598728 85.88299364 -36 87 C-35.34 85.02 -34.68 83.04 -34 81 C-35.98 81.99 -35.98 81.99 -38 83 C-34.5 76 -34.5 76 -31 69 C-30.34 69 -29.68 69 -29 69 C-28.8453125 67.9171875 -28.8453125 67.9171875 -28.6875 66.8125 C-27.93639666 63.73980452 -26.61878185 61.69796974 -25 59 C-24.65939189 57.33480481 -24.32441604 55.66842534 -24 54 C-23.01 53.505 -23.01 53.505 -22 53 C-21.67 52.01 -21.34 51.02 -21 50 C-20.34 50 -19.68 50 -19 50 C-18.82791016 48.92298828 -18.82791016 48.92298828 -18.65234375 47.82421875 C-17.9645237 44.84641098 -16.92383583 42.54674109 -15.5625 39.8125 C-12.27137996 32.86191072 -9.50006667 25.74248437 -6.75 18.5625 C-6.31373291 17.42466064 -5.87746582 16.28682129 -5.42797852 15.11450195 C-3.51952088 10.10354876 -1.67055134 5.0961254 0 0 Z " fill="#B9BDBD" transform="translate(884,638)"/>
<path d="M0 0 C7.92 1.98 7.92 1.98 16 4 C15.67 3.01 15.34 2.02 15 1 C15.99 1.33 16.98 1.66 18 2 C18 3.32 18 4.64 18 6 C19.93552734 6.37511719 19.93552734 6.37511719 21.91015625 6.7578125 C27.03396951 7.89821921 31.64728011 9.76199758 36.4375 11.875 C38.11166905 12.59837441 39.78614508 13.32103878 41.4609375 14.04296875 C42.24952148 14.38505371 43.03810547 14.72713867 43.85058594 15.07958984 C46.40042934 16.17146963 48.97467148 17.18933757 51.5625 18.1875 C55.8011343 19.85320892 59.82962161 21.85388087 63.87109375 23.94921875 C66.09723307 25.10814462 66.09723307 25.10814462 69 26 C68.505 28.475 68.505 28.475 68 31 C63.9095578 30.20492684 60.22035511 28.43525299 56.4375 26.75 C55.78458984 26.46253906 55.13167969 26.17507812 54.45898438 25.87890625 C51.45198372 24.55083846 48.45286965 23.21170113 45.47485352 21.81958008 C38.46289344 18.55733127 31.34192021 15.79317692 24.0625 13.1875 C22.95326172 12.78080078 21.84402344 12.37410156 20.70117188 11.95507812 C19.63576172 11.57158203 18.57035156 11.18808594 17.47265625 10.79296875 C16.51625244 10.4477417 15.55984863 10.10251465 14.57446289 9.74682617 C11.80649576 8.81426383 11.80649576 8.81426383 8 9 C8 8.34 8 7.68 8 7 C7.319375 6.87625 6.63875 6.7525 5.9375 6.625 C2.5722588 5.90899123 -0.70013425 4.97054875 -4 4 C-3.34 3.525625 -2.68 3.05125 -2 2.5625 C-1.34 2.046875 -0.68 1.53125 0 1 C0 0.67 0 0.34 0 0 Z " fill="#C7CCCC" transform="translate(621,131)"/>
<path d="M0 0 C0.66 1.32 1.32 2.64 2 4 C1.44054687 4.64582031 0.88109375 5.29164063 0.3046875 5.95703125 C-19.8544281 29.6488536 -37.31646408 56.05339016 -51 84 C-51.99 83.01 -52.98 82.02 -54 81 C-52.39235435 75.17228451 -49.50632386 70.25609315 -46.5 65.0625 C-45.96246094 64.12954102 -45.42492187 63.19658203 -44.87109375 62.23535156 C-40.23060208 54.25710672 -35.2743366 46.56992319 -30 39 C-29.53094238 38.3198584 -29.06188477 37.6397168 -28.57861328 36.93896484 C-19.72037115 24.10283752 -10.50933853 11.54951197 0 0 Z " fill="#CFCFD0" transform="translate(182,235)"/>
<path d="M0 0 C0.66 0.33 1.32 0.66 2 1 C1.67 1.99 1.34 2.98 1 4 C1.66 4.33 2.32 4.66 3 5 C2.28650391 5.36738281 2.28650391 5.36738281 1.55859375 5.7421875 C-6.31854178 9.94912912 -13.62838518 14.97978945 -21 20 C-21.61053223 20.4139502 -22.22106445 20.82790039 -22.85009766 21.25439453 C-30.2521247 26.2354463 -30.2521247 26.2354463 -37.24609375 31.76171875 C-40 34 -40 34 -42 34 C-42.33 34.99 -42.66 35.98 -43 37 C-44.671875 38.46484375 -44.671875 38.46484375 -46.75 39.9375 C-49.1978854 41.69664345 -51.54765251 43.45240859 -53.875 45.375 C-56 47 -56 47 -58 47 C-58.33 47.66 -58.66 48.32 -59 49 C-59 47.68 -59 46.36 -59 45 C-58.01 45 -57.02 45 -56 45 C-55.88648193 44.40823975 -55.77296387 43.81647949 -55.65600586 43.20678711 C-53.51125862 35.99191167 -45.70161432 31.16052216 -39.9375 26.9375 C-39.07350586 26.29699707 -38.20951172 25.65649414 -37.31933594 24.99658203 C-27.7768097 17.98991604 -17.93775298 11.42956575 -8 5 C-6.8543457 4.23671387 -6.8543457 4.23671387 -5.68554688 3.45800781 C-4.96947266 2.98975586 -4.25339844 2.52150391 -3.515625 2.0390625 C-2.56864746 1.41185303 -2.56864746 1.41185303 -1.60253906 0.77197266 C-1.07370117 0.51722168 -0.54486328 0.2624707 0 0 Z " fill="#AAAAAA" transform="translate(308,171)"/>
<path d="M0 0 C2.8125 2.375 2.8125 2.375 5 5 C5 5.66 5 6.32 5 7 C5.66 7 6.32 7 7 7 C7 7.66 7 8.32 7 9 C7.556875 9.2475 8.11375 9.495 8.6875 9.75 C11.40371009 11.21822167 13.61608641 13.04396834 16 15 C18.77260299 16.93798263 18.77260299 16.93798263 21 18 C22.66666667 19.66666667 24.33333333 21.33333333 26 23 C26.66 23.33 27.32 23.66 28 24 C28 24.66 28 25.32 28 26 C28.99 26 29.98 26 31 26 C32.68762851 27.6454378 34.3540349 29.31288577 36 31 C36.99 31.33 37.98 31.66 39 32 C39 32.66 39 33.32 39 34 C39.5775 34.268125 40.155 34.53625 40.75 34.8125 C43.0325868 36.01719859 44.9737942 37.40798115 47 39 C46.67 39.99 46.34 40.98 46 42 C41.3137727 41.49290824 38.19369358 39.3590372 34.5 36.625 C33.89414062 36.18526855 33.28828125 35.74553711 32.6640625 35.29248047 C27.73657674 31.66459352 23.03891138 27.79022798 18.43945312 23.75634766 C15.12458345 20.86284145 11.67967323 18.40594019 8 16 C6.64426252 14.68945377 5.31387169 13.35251497 4 12 C1.98087846 10.24406334 -0.05331854 8.50775402 -2.09765625 6.78125 C-4.0088555 4.9917082 -5.4956544 3.1370143 -7 1 C-4.35955695 -0.32022153 -2.93650531 -0.40974493 0 0 Z " fill="#8B8E90" transform="translate(225,829)"/>
<path d="M0 0 C0.33 0 0.66 0 1 0 C1.03758423 1.62010986 1.03758423 1.62010986 1.07592773 3.27294922 C1.16995572 7.27242312 1.27018754 11.27172147 1.37231445 15.27099609 C1.4156808 17.00337626 1.45735463 18.73579963 1.49731445 20.46826172 C1.55497594 22.95553627 1.61868198 25.44259293 1.68359375 27.9296875 C1.70030624 28.70682098 1.71701874 29.48395447 1.73423767 30.28463745 C1.76473429 34.27274216 1.76473429 34.27274216 3 38 C3.25710072 40.11965257 3.4575809 42.24638575 3.625 44.375 C3.72039062 45.51710938 3.81578125 46.65921875 3.9140625 47.8359375 C3.98750726 50.54004012 3.83837463 52.45984999 3 55 C3.66 55.33 4.32 55.66 5 56 C4.98259766 57.08667969 4.98259766 57.08667969 4.96484375 58.1953125 C4.91768689 63.24783323 4.92622436 68.03378767 6 73 C4.515 73.495 4.515 73.495 3 74 C2.01 74.99 2.01 74.99 1 76 C-1.75989917 58.63563438 -2.30984289 41.48784579 -2.3125 23.9375 C-2.31572266 22.86974335 -2.31894531 21.80198669 -2.32226562 20.70187378 C-2.32790324 17.64349971 -2.31774403 14.58566789 -2.30078125 11.52734375 C-2.30157181 10.59515015 -2.30236237 9.66295654 -2.30317688 8.70251465 C-2.29376572 7.84798706 -2.28435455 6.99345947 -2.2746582 6.11303711 C-2.27005081 5.36396591 -2.26544342 4.61489471 -2.26069641 3.84312439 C-2 2 -2 2 0 0 Z " fill="#8A8C8C" transform="translate(82,493)"/>
<path d="M0 0 C0.66 0.33 1.32 0.66 2 1 C1.67 2.32 1.34 3.64 1 5 C0.071875 5.12375 0.071875 5.12375 -0.875 5.25 C-3.69800076 6.24635321 -3.68910852 7.37353528 -5 10 C-6.6640625 11.89453125 -6.6640625 11.89453125 -8.625 13.8125 C-9.34300781 14.51503906 -10.06101563 15.21757812 -10.80078125 15.94140625 C-12.76022755 17.77555936 -14.76132901 19.52024962 -16.8125 21.25 C-21.77847646 25.53001473 -26.06890805 30.42182892 -30.44677734 35.28515625 C-33.27058437 38.40279544 -36.1365009 41.4813573 -39 44.5625 C-39.82794067 45.45594116 -39.82794067 45.45594116 -40.67260742 46.36743164 C-41.19314697 46.92809326 -41.71368652 47.48875488 -42.25 48.06640625 C-42.70890625 48.56084229 -43.1678125 49.05527832 -43.640625 49.56469727 C-45.06723821 51.07099379 -46.52671278 52.53944155 -48 54 C-48.66 52.68 -49.32 51.36 -50 50 C-49.57589844 49.5875 -49.15179688 49.175 -48.71484375 48.75 C-44.82905152 44.92398919 -41.18043083 40.96994313 -37.62109375 36.83984375 C-35.51829137 34.45328972 -33.24872723 32.24872723 -31 30 C-30.0563796 28.88012867 -29.11932129 27.75470807 -28.1875 26.625 C-25.34639255 23.25394505 -22.19653428 20.41837608 -18.83203125 17.578125 C-16.98091136 16.03740136 -16.98091136 16.03740136 -15.38671875 14.296875 C-14 13 -14 13 -12 13 C-11.66355469 12.15695313 -11.66355469 12.15695313 -11.3203125 11.296875 C-9.61328077 8.32724583 -7.45193456 6.49655833 -4.875 4.25 C-3.96492188 3.45078125 -3.05484375 2.6515625 -2.1171875 1.828125 C-1.41851562 1.22484375 -0.71984375 0.6215625 0 0 Z " fill="#D6D6D6" transform="translate(232,184)"/>
<path d="M0 0 C2.39952855 1.51970142 3.79106223 2.46701522 4.84375 5.15234375 C6.35022783 8.86255436 8.45551548 12.02141842 10.625 15.375 C14.14988897 20.93091798 17.53943707 26.53368824 20.6875 32.3125 C21.2136792 33.25391846 21.2136792 33.25391846 21.75048828 34.21435547 C22.58177294 35.76868237 23.30109793 37.38182134 24 39 C23.67 39.99 23.34 40.98 23 42 C23 42.99 23 43.98 23 45 C22.67 45.99 22.34 46.98 22 48 C21.59007812 47.22914063 21.18015625 46.45828125 20.7578125 45.6640625 C20.21898437 44.66117187 19.68015625 43.65828125 19.125 42.625 C18.32449219 41.12839844 18.32449219 41.12839844 17.5078125 39.6015625 C16.1179862 36.94651605 16.1179862 36.94651605 14 35 C14.33 34.34 14.66 33.68 15 33 C14.34 33 13.68 33 13 33 C12.78085937 32.38253906 12.56171875 31.76507813 12.3359375 31.12890625 C10.28642176 25.65519958 7.88085516 21.02854043 4.52734375 16.25 C2.08401295 12.65061754 0.04836763 8.83389162 -2 5 C-1.34 5 -0.68 5 0 5 C0 3.35 0 1.7 0 0 Z " fill="#C7CDCD" transform="translate(872,277)"/>
<path d="M0 0 C4.57001131 0.67310244 8.54954983 2.42103592 12.75 4.25 C19.45514213 7.10206701 26.17096789 9.40609942 33.20214844 11.31347656 C37.6836994 12.54090772 41.77816536 14.09195006 46 16 C45.34 17.32 44.68 18.64 44 20 C41.03 19.67 38.06 19.34 35 19 C35 18.34 35 17.68 35 17 C34.00097656 16.89042969 33.00195312 16.78085937 31.97265625 16.66796875 C27.92641407 16.08587064 24.23183198 14.79801676 20.4375 13.3125 C19.41172852 12.91973877 19.41172852 12.91973877 18.36523438 12.51904297 C11.49859096 9.86256963 4.73690018 6.96844664 -2 4 C-1.34 3.67 -0.68 3.34 0 3 C0 2.01 0 1.02 0 0 Z " fill="#A4A7A9" transform="translate(337,905)"/>
<path d="M0 0 C5.15550534 3.53520366 9.27607811 7.25420567 13.2734375 12.0546875 C14.96412388 13.95957849 16.71373011 15.52078702 18.6875 17.125 C21.83706114 19.71088129 23.83975401 22.52817609 26 26 C26.5775 26.5775 27.155 27.155 27.75 27.75 C29 29 29 29 29 31 C29.66 31 30.32 31 31 31 C30.67 32.32 30.34 33.64 30 35 C23.35575887 33.18793424 19.29805341 27.54745759 15 22.5 C9.08839896 15.61906022 2.45059056 9.36972491 -4 3 C-2.68 2.67 -1.36 2.34 0 2 C0 1.34 0 0.68 0 0 Z " fill="#D0D6D7" transform="translate(808,200)"/>
<path d="M0 0 C5.27339031 1.56248602 8.84530786 4.9955703 12.9375 8.5 C21.67100196 15.82946827 30.66956144 22.51709975 40.203125 28.765625 C40.89905762 29.22291992 41.59499023 29.68021484 42.31201172 30.15136719 C43.66294012 31.03450665 45.01859939 31.9104612 46.37939453 32.77832031 C47.95370436 33.80155874 49.48223421 34.89462435 51 36 C51 36.66 51 37.32 51 38 C48 39 48 39 46.22924805 38.18652344 C45.25532104 37.52958496 45.25532104 37.52958496 44.26171875 36.859375 C43.53065918 36.37098145 42.79959961 35.88258789 42.04638672 35.37939453 C41.2679541 34.84169434 40.48952148 34.30399414 39.6875 33.75 C38.48504639 32.93378174 38.48504639 32.93378174 37.25830078 32.10107422 C30.96358402 27.77994439 24.92414036 23.18697859 18.98046875 18.3984375 C15.99772108 15.99816611 12.9608036 13.69462002 9.88671875 11.4140625 C6.21648842 8.66328946 2.61223986 5.82624322 -1 3 C-0.67 2.01 -0.34 1.02 0 0 Z " fill="#EBEFF0" transform="translate(251,812)"/>
<path d="M0 0 C0.66 0.33 1.32 0.66 2 1 C1.67 1.33 1.34 1.66 1 2 C2.32 2.66 3.64 3.32 5 4 C4.030625 4.36351562 3.06125 4.72703125 2.0625 5.1015625 C1.1034375 5.46133179 1.1034375 5.46133179 0.125 5.82836914 C-1.31228691 6.3671866 -2.74979315 6.90541929 -4.1875 7.44311523 C-7.81771804 8.80168967 -11.44467305 10.16732647 -15.0625 11.55859375 C-21.92282149 14.18641985 -28.80602497 16.66196757 -35.8125 18.875 C-36.82666992 19.19803101 -36.82666992 19.19803101 -37.86132812 19.52758789 C-40.69394602 20.40281463 -43.01558523 21 -46 21 C-46.66 19.68 -47.32 18.36 -48 17 C-46.94941406 16.75765625 -45.89882813 16.5153125 -44.81640625 16.265625 C-34.90302219 13.92542352 -34.90302219 13.92542352 -25.4765625 10.13671875 C-21.36119902 8.24780586 -17.09544631 6.75120061 -12.84570312 5.19384766 C-12.19279297 4.95327637 -11.53988281 4.71270508 -10.8671875 4.46484375 C-10.22620117 4.22878418 -9.58521484 3.99272461 -8.92480469 3.74951172 C-6.95911222 2.98407845 -5.05219127 2.12820165 -3.1328125 1.25390625 C-2.09898437 0.84011719 -1.06515625 0.42632813 0 0 Z " fill="#C7CACA" transform="translate(676,908)"/>
<path d="M0 0 C6.27726663 3.08356957 12.1498834 6.89872073 18.0625 10.625 C18.83730713 11.10420898 19.61211426 11.58341797 20.41040039 12.07714844 C21.13219482 12.53895508 21.85398926 13.00076172 22.59765625 13.4765625 C23.25258057 13.88986816 23.90750488 14.30317383 24.58227539 14.72900391 C25.05012451 15.14843262 25.51797363 15.56786133 26 16 C26 16.99 26 17.98 26 19 C26.66 19.04125 27.32 19.0825 28 19.125 C31.77535811 20.22614612 34.18008889 22.19869403 37.23046875 24.625 C38.96021771 26.06163651 38.96021771 26.06163651 41 27 C41 27.66 41 28.32 41 29 C41.598125 29.103125 42.19625 29.20625 42.8125 29.3125 C45.32857968 30.1032679 46.23754346 31.08428637 48 33 C48.99 33.66 49.98 34.32 51 35 C51 35.66 51 36.32 51 37 C51.66 37 52.32 37 53 37 C53 37.66 53 38.32 53 39 C53.99 39.33 54.98 39.66 56 40 C55.01 40.66 54.02 41.32 53 42 C52.01 41.34 51.02 40.68 50 40 C50 39.34 50 38.68 50 38 C49.4225 37.71125 48.845 37.4225 48.25 37.125 C47.5075 36.75375 46.765 36.3825 46 36 C45.34 35.71125 44.68 35.4225 44 35.125 C42 34 42 34 40.25 32.1875 C37.61289789 29.62365073 34.78786625 27.96968979 31.609375 26.1484375 C31.07828125 25.76945312 30.5471875 25.39046875 30 25 C30 24.34 30 23.68 30 23 C29.48308594 22.76539063 28.96617187 22.53078125 28.43359375 22.2890625 C25.15196117 20.55079805 22.129309 18.46003819 19.0625 16.375 C12.93206563 12.23005486 6.69710102 8.34077653 0.31640625 4.59375 C-0.83021484 3.80484375 -0.83021484 3.80484375 -2 3 C-2 2.34 -2 1.68 -2 1 C-1.34 0.67 -0.68 0.34 0 0 Z " fill="#E8EDEE" transform="translate(735,145)"/>
<path d="M0 0 C0.33 0 0.66 0 1 0 C1 52.47 1 104.94 1 159 C-1.64 158.67 -4.28 158.34 -7 158 C-7.33 157.34 -7.66 156.68 -8 156 C-6.0085944 155.61866701 -4.00720923 155.28674418 -2 155 C-1.67 155.33 -1.34 155.66 -1 156 C-0.67 104.52 -0.34 53.04 0 0 Z " fill="#8ABFCA" transform="translate(463,427)"/>
<path d="M0 0 C-0.37040981 7.31294795 -3.68359123 13.29978906 -6.8125 19.8125 C-10.44635395 27.46156531 -13.98107076 35.08441911 -17 43 C-18.32 43 -19.64 43 -21 43 C-20.43983957 38.820076 -19.48315259 35.40557541 -17.70703125 31.5859375 C-17.24417725 30.58248291 -16.78132324 29.57902832 -16.30444336 28.54516602 C-15.5659314 26.97593384 -15.5659314 26.97593384 -14.8125 25.375 C-14.06528687 23.76999634 -14.06528687 23.76999634 -13.30297852 22.13256836 C-11.8784448 19.08364374 -10.44219581 16.04060321 -9 13 C-8.64583008 12.25024902 -8.29166016 11.50049805 -7.92675781 10.72802734 C-2.83209532 0 -2.83209532 0 0 0 Z " fill="#AFB1B2" transform="translate(130,315)"/>
<path d="M0 0 C0.83978394 0.40109985 0.83978394 0.40109985 1.6965332 0.81030273 C4.2343327 2.02117233 6.77339804 3.22936412 9.3125 4.4375 C10.19357422 4.85837891 11.07464844 5.27925781 11.98242188 5.71289062 C12.82998047 6.11572266 13.67753906 6.51855469 14.55078125 6.93359375 C15.33106689 7.30540771 16.11135254 7.67722168 16.9152832 8.06030273 C19.1189272 9.09606238 19.1189272 9.09606238 22 10 C22 10.66 22 11.32 22 12 C22.62648438 12.20496094 23.25296875 12.40992188 23.8984375 12.62109375 C24.71570313 12.89050781 25.53296875 13.15992188 26.375 13.4375 C27.18710937 13.70433594 27.99921875 13.97117187 28.8359375 14.24609375 C31 15 31 15 33 16 C33 17.32 33 18.64 33 20 C27.95127613 19.45545351 23.99488737 17.71795821 19.5625 15.375 C18.15846555 14.65186948 16.75349157 13.9305607 15.34765625 13.2109375 C14.63367676 12.84452148 13.91969727 12.47810547 13.18408203 12.10058594 C9.65830511 10.32390336 6.08293421 8.65765292 2.5 7 C1.84717041 6.69755371 1.19434082 6.39510742 0.52172852 6.08349609 C-0.98464623 5.38711649 -2.49218222 4.69324956 -4 4 C-2.68 2.68 -1.36 1.36 0 0 Z " fill="#9A9D9F" transform="translate(304,888)"/>
<path d="M0 0 C-1.24743936 2.5221286 -2.49787069 5.04270078 -3.75 7.5625 C-4.09804688 8.26697266 -4.44609375 8.97144531 -4.8046875 9.69726562 C-7.05916867 14.22710278 -9.45072136 18.62907083 -12 23 C-12.80824219 24.40378906 -12.80824219 24.40378906 -13.6328125 25.8359375 C-14.12523437 26.67382812 -14.61765625 27.51171875 -15.125 28.375 C-15.87136719 29.65503906 -15.87136719 29.65503906 -16.6328125 30.9609375 C-18 33 -18 33 -20 34 C-19.34 32.02 -18.68 30.04 -18 28 C-19.98 28.99 -19.98 28.99 -22 30 C-19.66666667 25.33333333 -17.33333333 20.66666667 -15 16 C-14.34 16 -13.68 16 -13 16 C-12.896875 15.278125 -12.79375 14.55625 -12.6875 13.8125 C-11.93639666 10.73980452 -10.61878185 8.69796974 -9 6 C-8.29329272 3.30745009 -8.29329272 3.30745009 -8 1 C-2.25 -1.125 -2.25 -1.125 0 0 Z " fill="#C3C7C7" transform="translate(868,691)"/>
<path d="M0 0 C0 8.8405101 -14.99967482 20.61386711 -21 27 C-22.32 26.67 -23.64 26.34 -25 26 C-23.76282052 21.46367524 -21.31018803 19.16679017 -18.00390625 16.046875 C-14.96269438 12.94045195 -12.4585309 9.44536504 -9.89453125 5.94140625 C-8.95673828 4.98041016 -8.95673828 4.98041016 -8 4 C-6.68 4 -5.36 4 -4 4 C-3.67 3.34 -3.34 2.68 -3 2 C-2.01 1.34 -1.02 0.68 0 0 Z " fill="#95989A" transform="translate(849,781)"/>
<path d="M0 0 C0.33 0 0.66 0 1 0 C1.03758423 1.62010986 1.03758423 1.62010986 1.07592773 3.27294922 C1.16995572 7.27242312 1.27018754 11.27172147 1.37231445 15.27099609 C1.4156808 17.00337626 1.45735463 18.73579963 1.49731445 20.46826172 C1.55497594 22.95553627 1.61868198 25.44259293 1.68359375 27.9296875 C1.70030624 28.70682098 1.71701874 29.48395447 1.73423767 30.28463745 C1.76473429 34.27274216 1.76473429 34.27274216 3 38 C3.22950319 40.204364 3.41075933 42.41392173 3.5625 44.625 C3.64628906 45.81351563 3.73007813 47.00203125 3.81640625 48.2265625 C3.87699219 49.14179687 3.93757813 50.05703125 4 51 C3.34 50.67 2.68 50.34 2 50 C1.62109375 47.53125 1.62109375 47.53125 1.4375 44.5 C1.50678967 40.93669646 1.50678967 40.93669646 0 38 C-0.33 41.63 -0.66 45.26 -1 49 C-1.33 49 -1.66 49 -2 49 C-2.0505916 42.34313186 -2.0856876 35.68631306 -2.10986328 29.02929688 C-2.11993859 26.76332751 -2.13359918 24.49737119 -2.15087891 22.23144531 C-2.17506011 18.97978499 -2.18646763 15.72829613 -2.1953125 12.4765625 C-2.20563507 11.45881744 -2.21595764 10.44107239 -2.22659302 9.39248657 C-2.22674408 8.45166229 -2.22689514 7.51083801 -2.22705078 6.54150391 C-2.231492 5.71099518 -2.23593323 4.88048645 -2.24050903 4.02481079 C-2 2 -2 2 0 0 Z " fill="#8F9292" transform="translate(82,493)"/>
<path d="M0 0 C1.05942215 2.68308903 1.11243438 3.73024391 -0.01635742 6.43847656 C-0.80296753 7.77604004 -0.80296753 7.77604004 -1.60546875 9.140625 C-2.17716797 10.12933594 -2.74886719 11.11804688 -3.33789062 12.13671875 C-3.94826172 13.16410156 -4.55863281 14.19148438 -5.1875 15.25 C-6.37025987 17.27500872 -7.55128438 19.30103214 -8.73046875 21.328125 C-9.2929834 22.29169922 -9.85549805 23.25527344 -10.43505859 24.24804688 C-12.43751076 27.7693637 -14.24128896 31.35165651 -16 35 C-16.99 34.01 -17.98 33.02 -19 32 C-17.35663921 25.96090113 -14.27958397 20.82527872 -11.1875 15.4375 C-10.66607422 14.50486328 -10.14464844 13.57222656 -9.60742188 12.61132812 C-6.83444954 7.75429918 -4.22146304 3.69085401 0 0 Z " fill="#C0C1C1" transform="translate(147,284)"/>
<path d="M0 0 C2.64 0 5.28 0 8 0 C8 0.66 8 1.32 8 2 C6.35 2.66 4.7 3.32 3 4 C2.9752796 10.19303089 2.95713027 16.38603305 2.94506836 22.57910156 C2.94003987 24.68587749 2.93321624 26.79264992 2.92456055 28.89941406 C2.91243011 31.92774314 2.90675683 34.95602606 2.90234375 37.984375 C2.89718246 38.92617615 2.89202118 39.86797729 2.88670349 40.83831787 C2.88659019 42.15923431 2.88659019 42.15923431 2.88647461 43.50683594 C2.884254 44.27960876 2.88203339 45.05238159 2.87974548 45.84857178 C3.00114438 48.02047367 3.43988388 49.90435456 4 52 C4 52.66 4 53.32 4 54 C4.66 54.33 5.32 54.66 6 55 C5.01 55 4.02 55 3 55 C0.91894664 52.90295716 0.07731483 51.51802208 -0.36076355 48.58282471 C-0.35410172 47.68569763 -0.34743988 46.78857056 -0.34057617 45.86425781 C-0.34034958 44.84350159 -0.34012299 43.82274536 -0.33988953 42.77105713 C-0.32440567 41.67613953 -0.30892181 40.58122192 -0.29296875 39.453125 C-0.28872391 38.3267865 -0.28447906 37.200448 -0.28010559 36.03997803 C-0.26331497 32.44307537 -0.22566099 28.84673328 -0.1875 25.25 C-0.17245371 22.81120601 -0.15876521 20.37240323 -0.14648438 17.93359375 C-0.11341015 11.95553795 -0.06320643 5.97780903 0 0 Z " fill="#1E2057" transform="translate(492,438)"/>
<path d="M0 0 C0.66 0.33 1.32 0.66 2 1 C1.67 1.99 1.34 2.98 1 4 C1.66 4.33 2.32 4.66 3 5 C2.52433594 5.24492187 2.04867188 5.48984375 1.55859375 5.7421875 C-4.47814109 8.96622636 -10.12030426 12.6719988 -15.76977539 16.52099609 C-18.77038739 18.5568326 -21.6820664 20.50400475 -25 22 C-24.11208094 17.85637773 -23.1862876 14.9400597 -19.78515625 12.24487305 C-18.88667969 11.67293213 -17.98820312 11.10099121 -17.0625 10.51171875 C-16.08539063 9.88845703 -15.10828125 9.26519531 -14.1015625 8.62304688 C-13.07804687 7.98431641 -12.05453125 7.34558594 -11 6.6875 C-9.46472656 5.70040039 -9.46472656 5.70040039 -7.8984375 4.69335938 C-2.23513769 1.11830798 -2.23513769 1.11830798 0 0 Z " fill="#B7B7B7" transform="translate(308,171)"/>
<path d="M0 0 C7.92 1.98 7.92 1.98 16 4 C15.67 3.01 15.34 2.02 15 1 C15.99 1.33 16.98 1.66 18 2 C18 3.32 18 4.64 18 6 C20.97 6.495 20.97 6.495 24 7 C24.33 7.99 24.66 8.98 25 10 C24.67 10.33 24.34 10.66 24 11 C22.1796875 10.9140625 22.1796875 10.9140625 19.875 10.625 C19.06933594 10.52574219 18.26367188 10.42648438 17.43359375 10.32421875 C14.28529976 9.90478311 11.14149162 9.46788173 8 9 C8 8.34 8 7.68 8 7 C7.319375 6.87625 6.63875 6.7525 5.9375 6.625 C2.5722588 5.90899123 -0.70013425 4.97054875 -4 4 C-3.34 3.525625 -2.68 3.05125 -2 2.5625 C-1.34 2.046875 -0.68 1.53125 0 1 C0 0.67 0 0.34 0 0 Z " fill="#CDD0D1" transform="translate(621,131)"/>
<path d="M0 0 C0.7421875 1.6875 0.7421875 1.6875 1 4 C-0.5546875 6.375 -0.5546875 6.375 -2.875 9 C-3.69613281 9.95519531 -4.51726562 10.91039062 -5.36328125 11.89453125 C-5.79592285 12.39678223 -6.22856445 12.8990332 -6.67431641 13.41650391 C-8.91327513 16.09088444 -10.98648432 18.88592733 -13.0625 21.6875 C-13.81660156 22.70199219 -14.57070312 23.71648437 -15.34765625 24.76171875 C-15.89292969 25.50035156 -16.43820313 26.23898437 -17 27 C-17.66 26.34 -18.32 25.68 -19 25 C-19.99 25.66 -20.98 26.32 -22 27 C-20.32116396 23.17856105 -17.86208926 20.01949563 -15.3125 16.75 C-14.86769287 16.17660889 -14.42288574 15.60321777 -13.96459961 15.01245117 C-4.67138457 3.11425638 -4.67138457 3.11425638 0 0 Z " fill="#969697" transform="translate(211,254)"/>
<path d="M0 0 C0.66 0.33 1.32 0.66 2 1 C-1.51147323 4.08324479 -4.81289888 6.52449091 -8.9375 8.76171875 C-12.62438404 10.97524572 -16.01125666 13.61805662 -19.44921875 16.1953125 C-21.59245272 17.71165874 -23.6176272 18.91761048 -26 20 C-26.33 19.01 -26.66 18.02 -27 17 C-23.29502305 13.11292589 -19.40388211 9.84189497 -15.0625 6.6875 C-14.46759766 6.23310547 -13.87269531 5.77871094 -13.25976562 5.31054688 C-9.30756237 2.43818057 -7.01071031 1.68637476 -2 2 C-1.34 1.34 -0.68 0.68 0 0 Z " fill="#A7AAAC" transform="translate(777,853)"/>
<path d="M0 0 C0.66 0.33 1.32 0.66 2 1 C0.6875 3.5 0.6875 3.5 -1 6 C-1.99 6 -2.98 6 -4 6 C-3.87625 6.71542969 -3.7525 7.43085938 -3.625 8.16796875 C-4.09288122 11.70144668 -5.5526344 12.81405889 -8.265625 14.99414062 C-9.12414062 15.64672852 -9.12414062 15.64672852 -10 16.3125 C-10.85851562 16.9940918 -10.85851562 16.9940918 -11.734375 17.68945312 C-13.14554319 18.80662795 -14.57141896 19.90517971 -16 21 C-16.66 19.68 -17.32 18.36 -18 17 C-12.19539034 11.08833812 -6.33480354 5.34388455 0 0 Z M-23 21 C-22.34 21.33 -21.68 21.66 -21 22 C-22.65 23.65 -24.3 25.3 -26 27 C-26.66 26.67 -27.32 26.34 -28 26 C-26.35 24.35 -24.7 22.7 -23 21 Z " fill="#A0A0A0" transform="translate(253,210)"/>
<path d="M0 0 C0.33 0 0.66 0 1 0 C1.10546143 0.85529297 1.21092285 1.71058594 1.31958008 2.59179688 C1.81209644 6.56185827 2.30994419 10.53119821 2.8125 14.5 C2.94730774 15.5647757 2.94730774 15.5647757 3.08483887 16.65106201 C4.2587902 25.86587276 5.56355574 35.0083224 7.484375 44.1015625 C7.9726056 46.84601025 8.25101159 49.22439102 8 52 C6 54.3125 6 54.3125 4 56 C3.80448662 54.39679026 3.61888017 52.79237014 3.4375 51.1875 C3.33308594 50.29417969 3.22867188 49.40085937 3.12109375 48.48046875 C3 46 3 46 4 43 C4.2973358 37.84617947 3.41829681 33.92232423 2 29 C1.66289838 26.49229279 1.4313784 23.98991532 1.21875 21.46875 C1.02887797 19.32590848 0.74173087 17.19211611 0.4375 15.0625 C-0.2202028 10.05779278 -0.08334135 5.03752178 0 0 Z " fill="#CACACA" transform="translate(119,547)"/>
<path d="M0 0 C0.33 0 0.66 0 1 0 C1.35475891 4.79967941 0.7357476 7.07290824 -2.1875 10.875 C-5.3660951 15.13896904 -8.22719968 19.46269039 -11 24 C-11.66 23.34 -12.32 22.68 -13 22 C-13.66 22.33 -14.32 22.66 -15 23 C-13.66722489 19.32180203 -12.02767387 16.36290569 -9.75 13.1875 C-9.13382813 12.32769531 -8.51765625 11.46789062 -7.8828125 10.58203125 C-7.26148438 9.72996094 -6.64015625 8.87789063 -6 8 C-5.41992188 7.19949219 -4.83984375 6.39898437 -4.2421875 5.57421875 C-1.22821031 1.47550097 -1.22821031 1.47550097 0 0 Z " fill="#C9C9CA" transform="translate(160,263)"/>
<path d="M0 0 C6.20477864 1.93624298 12.10825719 4.25609141 18 7 C17.67 8.65 17.34 10.3 17 12 C14.21837305 11.36953397 11.71507474 10.52684767 9.109375 9.37109375 C8.04589844 8.90219727 8.04589844 8.90219727 6.9609375 8.42382812 C6.23132813 8.09833984 5.50171875 7.77285156 4.75 7.4375 C4.00492188 7.10814453 3.25984375 6.77878906 2.4921875 6.43945312 C0.66019632 5.62914934 -1.17007345 4.81495566 -3 4 C-2.01 3.67 -1.02 3.34 0 3 C0 2.01 0 1.02 0 0 Z " fill="#C0C4C4" transform="translate(672,150)"/>
<path d="M0 0 C-0.52506828 5.21745066 -1.7798559 9.22651111 -4.0625 13.9375 C-4.61035156 15.08089844 -5.15820312 16.22429687 -5.72265625 17.40234375 C-6.14417969 18.25957031 -6.56570312 19.11679687 -7 20 C-7.99 19.67 -8.98 19.34 -10 19 C-10.28875 19.804375 -10.5775 20.60875 -10.875 21.4375 C-12 24 -12 24 -14 25 C-12.39236645 19.59171105 -10.02204404 14.71144395 -7.5 9.6875 C-7.09652344 8.86443359 -6.69304687 8.04136719 -6.27734375 7.19335938 C-5.88675781 6.41154297 -5.49617188 5.62972656 -5.09375 4.82421875 C-4.73990234 4.11354248 -4.38605469 3.40286621 -4.02148438 2.6706543 C-2.96388529 0.94093381 -2.15909409 0 0 0 Z " fill="#B6B8B9" transform="translate(130,315)"/>
<path d="M0 0 C2.92301013 0.3340583 3.86172694 0.83942483 5.81640625 3.109375 C6.39261719 3.98078125 6.96882812 4.8521875 7.5625 5.75 C8.14128906 6.61109375 8.72007812 7.4721875 9.31640625 8.359375 C9.87199219 9.23078125 10.42757812 10.1021875 11 11 C11.84884766 12.30710937 11.84884766 12.30710937 12.71484375 13.640625 C14 16 14 16 14 19 C11.30750761 18.64022731 10.23560653 18.27448161 8.4375 16.1796875 C7.963125 15.41914062 7.48875 14.65859375 7 13.875 C6.49210938 13.06675781 5.98421875 12.25851562 5.4609375 11.42578125 C4.97882813 10.62527344 4.49671875 9.82476563 4 9 C3.57976562 8.31292969 3.15953125 7.62585938 2.7265625 6.91796875 C0 2.32535461 0 2.32535461 0 0 Z " fill="#777A7B" transform="translate(141,733)"/>
<path d="M0 0 C2.77862859 3.47328574 4.98463473 7.0412468 7 11 C6.67 11.99 6.34 12.98 6 14 C6 14.99 6 15.98 6 17 C5.67 17.99 5.34 18.98 5 20 C4.59007812 19.22914063 4.18015625 18.45828125 3.7578125 17.6640625 C3.21898437 16.66117187 2.68015625 15.65828125 2.125 14.625 C1.32449219 13.12839844 1.32449219 13.12839844 0.5078125 11.6015625 C-0.8820138 8.94651605 -0.8820138 8.94651605 -3 7 C-2.67 6.34 -2.34 5.68 -2 5 C-2.66 5 -3.32 5 -4 5 C-4.33 4.01 -4.66 3.02 -5 2 C-4.01 1.67 -3.02 1.34 -2 1 C-2 1.66 -2 2.32 -2 3 C-1.34 3 -0.68 3 0 3 C0 2.01 0 1.02 0 0 Z " fill="#C1C6C6" transform="translate(889,305)"/>
<path d="M0 0 C0.33 0 0.66 0 1 0 C1 20.79 1 41.58 1 63 C-2.96 62.505 -2.96 62.505 -7 62 C-7.33 61.34 -7.66 60.68 -8 60 C-6.0085944 59.61866701 -4.00720923 59.28674418 -2 59 C-1.67 59.33 -1.34 59.66 -1 60 C-0.505 30.3 -0.505 30.3 0 0 Z " fill="#75D9D4" transform="translate(463,523)"/>
<path d="M0 0 C1.32 0 2.64 0 4 0 C3.731875 0.928125 3.46375 1.85625 3.1875 2.8125 C1.74338801 7.86169732 0.37479636 12.93158407 -1 18 C-1.33 17.01 -1.66 16.02 -2 15 C-2.66 15 -3.32 15 -4 15 C-4.33 15.99 -4.66 16.98 -5 18 C-6.31983695 14.04048916 -5.03971894 11.59992488 -3.625 7.875 C-3.39039063 7.22917969 -3.15578125 6.58335937 -2.9140625 5.91796875 C-1.15762562 1.15762562 -1.15762562 1.15762562 0 0 Z " fill="#8F9191" transform="translate(137,378)"/>
<path d="M0 0 C2.5625718 -0.02710123 5.12485365 -0.04688771 7.6875 -0.0625 C8.40873047 -0.07087891 9.12996094 -0.07925781 9.87304688 -0.08789062 C13.71555382 -0.10543632 17.26639526 0.06475779 21 1 C18.59260816 3.66080151 16.30790359 5.56657511 13 7 C9.66796875 5.98046875 9.66796875 5.98046875 6.1875 4.1875 C5.02605469 3.60355469 3.86460937 3.01960938 2.66796875 2.41796875 C1.78753906 1.95003906 0.90710938 1.48210937 0 1 C0 0.67 0 0.34 0 0 Z " fill="#46C9C5" transform="translate(503,286)"/>
<path d="M0 0 C-0.99 0.495 -0.99 0.495 -2 1 C-3.13350534 3.01669827 -3.13350534 3.01669827 -4 5 C-5.155 4.979375 -6.31 4.95875 -7.5 4.9375 C-11.74350547 4.92992231 -15.80176644 5.40025235 -20 6 C-19 3 -19 3 -16.5625 1.25 C-15.716875 0.8375 -14.87125 0.425 -14 0 C-12 1 -12 1 -11 2 C-10.45730469 1.77183594 -9.91460938 1.54367187 -9.35546875 1.30859375 C-8.28232422 0.87740234 -8.28232422 0.87740234 -7.1875 0.4375 C-6.47980469 0.14746094 -5.77210938 -0.14257812 -5.04296875 -0.44140625 C-3 -1 -3 -1 0 0 Z " fill="#294D81" transform="translate(552,430)"/>
<path d="M0 0 C0.33 0 0.66 0 1 0 C1.02505615 1.06959961 1.0501123 2.13919922 1.07592773 3.24121094 C1.17019528 7.21463727 1.27036858 11.18789668 1.37231445 15.16113281 C1.41559016 16.87984305 1.45727041 18.59859424 1.49731445 20.31738281 C1.55519565 22.789839 1.61883836 25.26209047 1.68359375 27.734375 C1.70866249 28.88459137 1.70866249 28.88459137 1.73423767 30.05804443 C1.83039794 33.531467 2.13600329 36.64792981 3 40 C3 40.66 3 41.32 3 42 C3.66 42.33 4.32 42.66 5 43 C4.01 43 3.02 43 2 43 C-1.71033132 38.70079555 -1.32229215 34.5474592 -1.07421875 29.19921875 C-1.04777786 28.36284378 -1.02133698 27.52646881 -0.99409485 26.66474915 C-0.90663067 24.00491528 -0.79737971 21.34649283 -0.6875 18.6875 C-0.62420999 16.87960716 -0.562345 15.07166384 -0.50195312 13.26367188 C-0.35113825 8.84169285 -0.18078536 4.42085104 0 0 Z " fill="#282A63" transform="translate(493,450)"/>
<path d="M0 0 C1.32 0.33 2.64 0.66 4 1 C0.25 4 0.25 4 -2 4 C-2.2475 4.639375 -2.495 5.27875 -2.75 5.9375 C-4 8 -4 8 -6 8.75 C-8 9 -8 9 -10 9 C-10 9.66 -10 10.32 -10 11 C-11.59766103 11.86627399 -13.20339944 12.71766465 -14.8125 13.5625 C-15.70582031 14.03816406 -16.59914063 14.51382812 -17.51953125 15.00390625 C-20 16 -20 16 -23 15 C-22.33355469 14.64808594 -21.66710937 14.29617188 -20.98046875 13.93359375 C-9.00936752 8.54377629 -9.00936752 8.54377629 0 0 Z " fill="#224F8A" transform="translate(575,413)"/>
<path d="M0 0 C-0.56410871 3.94876098 -1.65735794 6.75634176 -4 10 C-4.99 10.33 -5.98 10.66 -7 11 C-7 11.99 -7 12.98 -7 14 C-7.99 14 -8.98 14 -10 14 C-8.58465326 9.16423199 -6.6634683 5.24490261 -4 1 C-2 0 -2 0 0 0 Z " fill="#818588" transform="translate(888,721)"/>
<path d="M0 0 C0.66 0 1.32 0 2 0 C2.268125 1.216875 2.53625 2.43375 2.8125 3.6875 C3.68494361 7.22121044 4.92156939 9.9768282 7 13 C5.625 14.5 5.625 14.5 4 16 C3.34 16 2.68 16 2 16 C-0.32637691 10.20377279 -1.43680971 6.13909603 0 0 Z " fill="#808283" transform="translate(113,669)"/>
<path d="M0 0 C0.33 0.66 0.66 1.32 1 2 C1.99 2.33 2.98 2.66 4 3 C0.7 5.97 -2.6 8.94 -6 12 C-6.66 11.67 -7.32 11.34 -8 11 C-4.14578588 2.3690205 -4.14578588 2.3690205 0 0 Z " fill="#A3A6A8" transform="translate(789,839)"/>
<path d="M0 0 C0.33 1.32 0.66 2.64 1 4 C1.99 3.67 2.98 3.34 4 3 C3.45136137 9.7857936 2.45732062 16.35009036 1 23 C0.67 23 0.34 23 0 23 C0 15.41 0 7.82 0 0 Z " fill="#0F3A59" transform="translate(411,492)"/>
<path d="M0 0 C2.35931785 3.53897678 2.85146936 5.76687689 3 10 C1.0625 12.4375 1.0625 12.4375 -1 14 C-1.22331199 12.41870971 -1.42804644 10.83478911 -1.625 9.25 C-1.74101563 8.36828125 -1.85703125 7.4865625 -1.9765625 6.578125 C-2.00207817 3.77140122 -1.44843844 2.36615134 0 0 Z " fill="#BEBEBE" transform="translate(124,589)"/>
<path d="M0 0 C0.33 0 0.66 0 1 0 C1.19477739 1.62414378 1.38059458 3.24936423 1.5625 4.875 C1.66691406 5.77992188 1.77132812 6.68484375 1.87890625 7.6171875 C2 10 2 10 1 12 C0.84932786 13.4465242 0.75138964 14.8987934 0.68359375 16.3515625 C0.64169922 17.20234375 0.59980469 18.053125 0.55664062 18.9296875 C0.51732422 19.81914062 0.47800781 20.70859375 0.4375 21.625 C0.37272461 22.97078125 0.37272461 22.97078125 0.30664062 24.34375 C0.20043139 26.56234283 0.09838806 28.7810488 0 31 C-2.15700692 27.1039529 -2.20774541 24.21825238 -2.125 19.75 C-2.10695313 18.48671875 -2.08890625 17.2234375 -2.0703125 15.921875 C-2.04710938 14.95765625 -2.02390625 13.9934375 -2 13 C-2.99 13.495 -2.99 13.495 -4 14 C-3.67 13.01 -3.34 12.02 -3 11 C-2.34 10.67 -1.68 10.34 -1 10 C-0.53248212 7.64400765 -0.53248212 7.64400765 -0.375 4.9375 C-0.30023438 4.01839844 -0.22546875 3.09929687 -0.1484375 2.15234375 C-0.09945312 1.44207031 -0.05046875 0.73179687 0 0 Z " fill="#B5B7B7" transform="translate(114,477)"/>
<path d="M0 0 C0 4.38968456 -2.12805101 5.76905739 -5 9 C-6.32 8.67 -7.64 8.34 -9 8 C-8.67 6.68 -8.34 5.36 -8 4 C-6.68 4 -5.36 4 -4 4 C-3.67 3.34 -3.34 2.68 -3 2 C-2.01 1.34 -1.02 0.68 0 0 Z M-7 9 C-7 9.99 -7 10.98 -7 12 C-9 13.6875 -9 13.6875 -11 15 C-9.84826645 12.53199953 -8.95216435 10.95216435 -7 9 Z " fill="#9FA3A5" transform="translate(849,781)"/>
<path d="M0 0 C1.5 1.3125 1.5 1.3125 3 3 C3 3.99 3 4.98 3 6 C2.34 6 1.68 6 1 6 C1.061875 6.78375 1.12375 7.5675 1.1875 8.375 C0.93792426 13.20013103 -0.4848682 17.43656733 -2 22 C-2.33 22 -2.66 22 -3 22 C-2.24984418 14.62346781 -1.16558465 7.32168224 0 0 Z " fill="#25527A" transform="translate(608,351)"/>
<path d="M0 0 C2.5 1.1875 2.5 1.1875 5 3 C5.3125 5.6875 5.3125 5.6875 5 8 C3.68 8 2.36 8 1 8 C0.26919734 6.02253397 -0.39421747 4.01927511 -1 2 C-0.67 1.34 -0.34 0.68 0 0 Z " fill="#8A8E8F" transform="translate(838,289)"/>
<path d="M0 0 C2.58001797 7.7400539 -1.24513864 17.61196272 -4 25 C-4.33 25 -4.66 25 -5 25 C-4.45382284 19.64746386 -3.54616506 14.40117382 -2.5 9.125 C-2.30410278 8.12521118 -2.30410278 8.12521118 -2.10424805 7.10522461 C-1.12376909 2.24753818 -1.12376909 2.24753818 0 0 Z " fill="#A8AAAA" transform="translate(125,415)"/>
<path d="M0 0 C2 3 2 3 1.6796875 5.15625 C-0.98742138 12.9245283 -0.98742138 12.9245283 -5 15 C-3.60961435 9.86626838 -1.91539047 4.96260257 0 0 Z " fill="#1E3C6F" transform="translate(604,374)"/>
<path d="M0 0 C1 3 1 3 -0.4375 6.1875 C-1.2109375 7.5796875 -1.2109375 7.5796875 -2 9 C-2.66 9 -3.32 9 -4 9 C-4.33 10.32 -4.66 11.64 -5 13 C-5.66 12.67 -6.32 12.34 -7 12 C-6.67566492 6.64847115 -3.50295176 3.71719957 0 0 Z " fill="#0F3A5A" transform="translate(426,473)"/>
<path d="M0 0 C0.99 0.33 1.98 0.66 3 1 C3.144375 1.639375 3.28875 2.27875 3.4375 2.9375 C3.80104993 5.20311706 3.80104993 5.20311706 6.0625 6.25 C6.701875 6.4975 7.34125 6.745 8 7 C7.01 7.33 6.02 7.66 5 8 C5 7.34 5 6.68 5 6 C4.34 6 3.68 6 3 6 C3.33 7.32 3.66 8.64 4 10 C2.35 8.35 0.7 6.7 -1 5 C-0.34 4.67 0.32 4.34 1 4 C0.67 2.68 0.34 1.36 0 0 Z " fill="#898D8E" transform="translate(207,814)"/>
<path d="M0 0 C0.66 0 1.32 0 2 0 C2 3.3 2 6.6 2 10 C1.01 10 0.02 10 -1 10 C-1.02689216 8.52093108 -1.04634621 7.04172517 -1.0625 5.5625 C-1.07410156 4.73878906 -1.08570312 3.91507813 -1.09765625 3.06640625 C-1 1 -1 1 0 0 Z " fill="#7B7E7F" transform="translate(85,566)"/>
<path d="M0 0 C0.99 0.66 1.98 1.32 3 2 C0.03 4.64 -2.94 7.28 -6 10 C-6 6.41087588 -5.33563446 5.89142971 -3 3.3125 C-2.443125 2.68988281 -1.88625 2.06726563 -1.3125 1.42578125 C-0.879375 0.95527344 -0.44625 0.48476563 0 0 Z " fill="#277E9D" transform="translate(436,463)"/>
<path d="M0 0 C1.65 1.32 3.3 2.64 5 4 C3.68 4 2.36 4 1 4 C1 4.99 1 5.98 1 7 C1.66 7 2.32 7 3 7 C2.67 8.32 2.34 9.64 2 11 C0.35 9.02 -1.3 7.04 -3 5 C-2.67 4.34 -2.34 3.68 -2 3 C-1.34 3.33 -0.68 3.66 0 4 C0 2.68 0 1.36 0 0 Z " fill="#999B9C" transform="translate(828,273)"/>
<path d="M0 0 C2.475 0.495 2.475 0.495 5 1 C5 3.97 5 6.94 5 10 C2.35534962 6.8745041 1.15585285 3.91211733 0 0 Z " fill="#1A4363" transform="translate(556,363)"/>
<path d="M0 0 C-0.99 0.495 -0.99 0.495 -2 1 C-3.13350534 3.01669827 -3.13350534 3.01669827 -4 5 C-5.65 4.67 -7.3 4.34 -9 4 C-6.35287314 0.09233654 -4.86783735 -1.62261245 0 0 Z " fill="#253872" transform="translate(552,430)"/>
<path d="M0 0 C0.66 0 1.32 0 2 0 C2 0.66 2 1.32 2 2 C2.66 2 3.32 2 4 2 C4 5.3 4 8.6 4 12 C3.34 11.67 2.68 11.34 2 11 C1.3671875 8.49609375 1.3671875 8.49609375 0.875 5.4375 C0.70742188 4.42558594 0.53984375 3.41367187 0.3671875 2.37109375 C0.24601563 1.58863281 0.12484375 0.80617188 0 0 Z " fill="#3DA0B5" transform="translate(560,373)"/>
<path d="M0 0 C0.33 0.99 0.66 1.98 1 3 C1.99 3 2.98 3 4 3 C2.25 7.875 2.25 7.875 0 9 C0 7.68 0 6.36 0 5 C-0.99 5.66 -1.98 6.32 -3 7 C-1.125 2.25 -1.125 2.25 0 0 Z " fill="#989C9D" transform="translate(872,742)"/>
<path d="M0 0 C0.66 0 1.32 0 2 0 C2 0.99 2 1.98 2 3 C1.34 3 0.68 3 0 3 C0 4.65 0 6.3 0 8 C-0.99 8 -1.98 8 -3 8 C-2.25 2.25 -2.25 2.25 0 0 Z " fill="#828587" transform="translate(876,737)"/>
<path d="M0 0 C4.875 3.625 4.875 3.625 6 7 C5.01 7.495 5.01 7.495 4 8 C1.47411298 5.63707344 0.11179163 4.33537489 -1 1 C-0.67 0.67 -0.34 0.34 0 0 Z " fill="#45C5C7" transform="translate(587,318)"/>
<path d="M0 0 C0.66 0 1.32 0 2 0 C2 1.98 2 3.96 2 6 C0.02 6.99 0.02 6.99 -2 8 C-2 4.79604584 -1.25664978 2.90600261 0 0 Z " fill="#888B8F" transform="translate(855,767)"/>
<path d="M0 0 C0.99 0 1.98 0 3 0 C3.99 2.97 4.98 5.94 6 9 C4.68 8.67 3.36 8.34 2 8 C2 6.35 2 4.7 2 3 C1.34 3 0.68 3 0 3 C0 2.01 0 1.02 0 0 Z " fill="#87898B" transform="translate(829,277)"/>
<path d="M0 0 C0.99 0 1.98 0 3 0 C3.33 2.64 3.66 5.28 4 8 C3.01 8 2.02 8 1 8 C0.67 5.36 0.34 2.72 0 0 Z " fill="#274E70" transform="translate(458,411)"/>
<path d="M0 0 C1.46067199 0.45082469 2.91848032 0.91093537 4.375 1.375 C5.18710937 1.63023437 5.99921875 1.88546875 6.8359375 2.1484375 C9 3 9 3 11 5 C9.54052295 4.93993922 8.08220728 4.8511311 6.625 4.75 C5.81289063 4.70359375 5.00078125 4.6571875 4.1640625 4.609375 C2 4 2 4 0.7109375 1.953125 C0.47632813 1.30859375 0.24171875 0.6640625 0 0 Z " fill="#4BD0C8" transform="translate(548,293)"/>
<path d="M0 0 C1.32 0.33 2.64 0.66 4 1 C-0.455 3.97 -0.455 3.97 -5 7 C-5.66 6.67 -6.32 6.34 -7 6 C-6.030625 5.38125 -5.06125 4.7625 -4.0625 4.125 C-0.97164638 2.34321154 -0.97164638 2.34321154 0 0 Z " fill="#245D93" transform="translate(575,413)"/>
<path d="M0 0 C0.99 0.33 1.98 0.66 3 1 C2.67 1.66 2.34 2.32 2 3 C1.34 2.67 0.68 2.34 0 2 C0 1.34 0 0.68 0 0 Z M-4 1 C-2.68 1.33 -1.36 1.66 0 2 C0.33 3.65 0.66 5.3 1 7 C-0.7074998 5.71937515 -2.37373596 4.38232443 -4 3 C-4 2.34 -4 1.68 -4 1 Z " fill="#C8CDCE" transform="translate(839,233)"/>
<path d="M0 0 C0.99 0 1.98 0 3 0 C3 0.66 3 1.32 3 2 C3.66 2 4.32 2 5 2 C4.67 3.32 4.34 4.64 4 6 C3.01 5.67 2.02 5.34 1 5 C0.67 3.35 0.34 1.7 0 0 Z " fill="#D5DADC" transform="translate(834,229)"/>
<path d="M0 0 C2.475 0.495 2.475 0.495 5 1 C4.67 2.32 4.34 3.64 4 5 C3.01 5 2.02 5 1 5 C0.67 3.35 0.34 1.7 0 0 Z " fill="#909596" transform="translate(299,886)"/>
<path d="M0 0 C0.99 0.33 1.98 0.66 3 1 C3 2.65 3 4.3 3 6 C3.66 6.33 4.32 6.66 5 7 C4.01 7 3.02 7 2 7 C0.25 4.625 0.25 4.625 -1 2 C-0.67 1.34 -0.34 0.68 0 0 Z " fill="#2F336E" transform="translate(493,486)"/>
<path d="M0 0 C0.66 0.33 1.32 0.66 2 1 C0.61918777 5.1424367 -1.59825558 6.32203099 -5 9 C-5 4.61031544 -2.87194899 3.23094261 0 0 Z " fill="#1F356F" transform="translate(591,399)"/>
<path d="M0 0 C1.32 0.33 2.64 0.66 4 1 C4 2.32 4 3.64 4 5 C2.68 4.34 1.36 3.68 0 3 C0 2.01 0 1.02 0 0 Z " fill="#888A8D" transform="translate(267,866)"/>
<path d="M0 0 C1.98 0 3.96 0 6 0 C1.25 4.875 1.25 4.875 -1 6 C-0.67 4.02 -0.34 2.04 0 0 Z " fill="#B2B2B3" transform="translate(271,197)"/>
<path d="M0 0 C0.99 0.99 1.98 1.98 3 3 C1.74458443 5.51083114 0.49936512 5.87125446 -2 7 C-1.125 2.25 -1.125 2.25 0 0 Z " fill="#D5DCDD" transform="translate(443,666)"/>
<path d="M0 0 C2.6875 0.3125 2.6875 0.3125 5 1 C3.68 2.32 2.36 3.64 1 5 C0.67 4.34 0.34 3.68 0 3 C-0.99 3 -1.98 3 -3 3 C-1.8125 1.4375 -1.8125 1.4375 0 0 Z " fill="#9F9E9F" transform="translate(211,252)"/>
</svg>
